<?xml version="1.0" encoding="UTF-8"?>
<!DOCTYPE svg PUBLIC "-//W3C//DTD SVG 1.1//EN" "http://www.w3.org/Graphics/SVG/1.1/DTD/svg11.dtd">
<!-- Creator: CorelDRAW 2019 (64-Bit) -->
<svg xmlns="http://www.w3.org/2000/svg" xml:space="preserve" width="768px" height="135px" version="1.1" style="shape-rendering:geometricPrecision; text-rendering:geometricPrecision; image-rendering:optimizeQuality; fill-rule:evenodd; clip-rule:evenodd"
viewBox="0 0 1966.03 345.03"
 xmlns:xlink="http://www.w3.org/1999/xlink">
 <defs>
  <style type="text/css">
   <![CDATA[
    .fil2 {fill:#377DFF;fill-rule:nonzero}
    .fil0 {fill:#377DFF;fill-rule:nonzero;fill-opacity:0.619608}
    .fil1 {fill:#377DFF;fill-rule:nonzero}
   ]]>
  </style>
 </defs>
 <g id="Layer_x0020_1">
  <metadata id="CorelCorpID_0Corel-Layer"/>
  <polygon class="fil0" points="63.79,50.89 0,84.91 0,261.26 63.72,227.27 "/>
  <polygon class="fil1" points="314.25,189.08 314.25,261.24 157.13,345.03 157.13,272.87 "/>
  <polygon class="fil0" points="63.64,295.12 63.69,227.27 0.13,261.17 "/>
  <polygon class="fil2" points="0,157.07 0,84.91 157.13,1.11 157.13,73.27 "/>
  <path class="fil2" d="M402.01 116.95c0,-1.22 0.34,-2.18 1,-2.87 0.67,-0.7 1.47,-1.08 2.4,-1.14l83.35 0c1.33,0 2.33,0.38 3,1.14 0.67,0.75 1,1.76 1,3.03l0 21.54c0,0.98 -0.35,1.92 -1.04,2.82 -0.7,0.9 -1.71,1.34 -3.05,1.34l-52.95 0 0 27 39.1 0c1.11,0 2.04,0.31 2.79,0.92 0.76,0.61 1.13,1.58 1.13,2.92l0 20.81c0,0.99 -0.33,1.93 -1,2.83 -0.67,0.9 -1.58,1.36 -2.74,1.36l-39.28 0 0 39.88c0,2.5 -1.34,3.75 -4.01,3.75l-26.56 0c-2.09,-0.29 -3.14,-1.51 -3.14,-3.66l0 -121.67z"/>
  <path class="fil2" d="M523.34 116.77c0,-1.04 0.32,-1.94 0.95,-2.69 0.64,-0.76 1.6,-1.14 2.88,-1.14l25.6 0c0.88,0 1.8,0.35 2.79,1.05 0.99,0.69 1.48,1.63 1.48,2.78l0 121.68c0,2.55 -1.42,3.83 -4.27,3.83l-25.6 0c-2.56,0 -3.83,-1.28 -3.83,-3.83l0 -121.68z"/>
  <path class="fil2" d="M741.33 200.47c0.99,0.82 2.25,1.91 3.79,3.27 1.54,1.37 3.3,2.71 5.27,4.05 2.96,1.97 5.9,3.51 8.8,4.62 2.9,1.1 5.95,1.65 9.14,1.65 2.96,0 5.45,-0.33 7.45,-1 2,-0.67 3.59,-1.56 4.75,-2.65 1.16,-1.11 1.99,-2.38 2.48,-3.83 0.49,-1.45 0.74,-2.99 0.74,-4.62 0,-1.79 -0.68,-3.4 -2.05,-4.82 -1.36,-1.42 -3.03,-2.69 -5.01,-3.79 -1.97,-1.1 -4.03,-2.05 -6.18,-2.83 -2.15,-0.78 -4.01,-1.43 -5.57,-1.96 -6.97,-2.43 -13.06,-5.06 -18.29,-7.87 -5.23,-2.82 -9.59,-5.95 -13.06,-9.4 -3.49,-3.45 -6.1,-7.25 -7.84,-11.4 -1.75,-4.15 -2.62,-8.77 -2.62,-13.88 0,-5.4 1.09,-10.3 3.27,-14.71 2.18,-4.41 5.28,-8.18 9.32,-11.32 4.03,-3.12 8.89,-5.55 14.58,-7.26 5.69,-1.71 12.05,-2.56 19.08,-2.56 5.28,0 10.35,0.59 15.2,1.78 4.85,1.19 9.62,3.09 14.33,5.7 1.97,1.17 3.85,2.37 5.61,3.62 1.77,1.25 3.33,2.46 4.66,3.62 1.34,1.16 2.39,2.26 3.18,3.31 0.79,1.04 1.18,1.94 1.18,2.69 0,0.76 -0.19,1.46 -0.57,2.1 -0.38,0.63 -0.94,1.36 -1.7,2.17l-13.32 14.2c-0.99,0.98 -1.97,1.48 -2.96,1.48 -0.82,0 -1.56,-0.23 -2.23,-0.7 -0.67,-0.46 -1.41,-1.04 -2.22,-1.74l-0.78 -0.69c-1.16,-0.99 -2.45,-2.01 -3.88,-3.06 -1.42,-1.04 -2.94,-1.98 -4.57,-2.83 -1.63,-0.84 -3.34,-1.53 -5.14,-2.09 -1.8,-0.55 -3.62,-0.82 -5.48,-0.82 -1.92,0 -3.72,0.16 -5.41,0.48 -1.68,0.32 -3.16,0.82 -4.43,1.52 -1.28,0.69 -2.3,1.61 -3.05,2.74 -0.76,1.13 -1.14,2.52 -1.14,4.14 0,1.63 0.41,3.04 1.22,4.22 0.81,1.2 2.03,2.3 3.66,3.32 1.63,1.01 3.64,1.97 6.05,2.87 2.41,0.9 5.21,1.87 8.41,2.92 6.15,2.03 11.83,4.17 17.03,6.4 5.19,2.24 9.67,4.88 13.45,7.92 3.77,3.05 6.72,6.7 8.84,10.93 2.12,4.24 3.18,9.38 3.18,15.42 0,6.39 -1.3,12.18 -3.92,17.38 -2.61,5.19 -6.2,9.62 -10.75,13.28 -4.56,3.66 -9.92,6.49 -16.07,8.49 -6.16,2 -12.77,3.01 -19.86,3.01 -6.68,0 -13.24,-1.2 -19.69,-3.59 -6.44,-2.38 -12.45,-5.58 -18.02,-9.6 -2.33,-1.69 -4.29,-3.35 -5.88,-4.99 -1.6,-1.62 -2.86,-2.93 -3.79,-3.93l-0.26 -0.26c-0.06,-0.11 -0.12,-0.18 -0.18,-0.21 -0.06,-0.03 -0.12,-0.08 -0.17,-0.14 -0.06,-0.11 -0.12,-0.19 -0.18,-0.21 -0.05,-0.04 -0.11,-0.08 -0.17,-0.13 -1.34,-1.46 -2,-2.63 -2,-3.5 0,-0.99 0.66,-2.1 2,-3.32l15.07 -14.37c1.22,-0.87 2.2,-1.31 2.96,-1.31 0.52,0 1.07,0.18 1.65,0.53 0.59,0.34 1.28,0.86 2.09,1.56z"/>
  <path class="fil2" d="M840.97 116.76c0,-1.15 0.4,-2.08 1.18,-2.78 0.78,-0.69 1.75,-1.04 2.92,-1.04l93.71 0c1.04,0 1.97,0.32 2.79,0.96 0.82,0.63 1.27,1.59 1.38,2.86l0 21.63c0,1.04 -0.36,2.03 -1.08,2.99 -0.72,0.96 -1.76,1.43 -3.09,1.43l-30.05 0 0 95.37c0,1.05 -0.37,1.99 -1.13,2.83 -0.76,0.85 -1.73,1.27 -2.96,1.27l-25.54 0c-0.98,0 -1.9,-0.39 -2.77,-1.18 -0.87,-0.78 -1.3,-1.75 -1.3,-2.92l0 -95.37 -29.96 0c-1.17,0 -2.14,-0.37 -2.92,-1.12 -0.78,-0.75 -1.18,-1.85 -1.18,-3.3l0 -21.63z"/>
  <path class="fil2" d="M1238.87 122.34c0.99,0.59 1.71,1.34 2.18,2.27 0.47,0.93 0.38,2.04 -0.25,3.31l-14.73 20.9c-0.64,0.99 -1.32,1.56 -2.04,1.7 -0.73,0.14 -1.62,-0.1 -2.66,-0.74 -2.85,-2.14 -5.98,-3.8 -9.41,-4.96 -3.43,-1.17 -7.05,-1.75 -10.88,-1.75 -4.77,0 -9.15,0.9 -13.16,2.71 -4,1.8 -7.46,4.27 -10.36,7.4 -2.91,3.14 -5.16,6.79 -6.79,10.97 -1.63,4.18 -2.44,8.66 -2.44,13.41 0,4.77 0.81,9.22 2.44,13.37 1.63,4.15 3.88,7.78 6.79,10.89 2.9,3.11 6.36,5.56 10.36,7.36 4.01,1.8 8.39,2.7 13.16,2.7 3.83,0 7.48,-0.6 10.97,-1.78 3.48,-1.19 6.64,-2.86 9.49,-5.01 1.05,-0.64 1.92,-0.9 2.61,-0.78 0.7,0.11 1.4,0.63 2.09,1.56l14.9 21.43c0.64,1.27 0.72,2.34 0.26,3.22 -0.47,0.87 -1.19,1.6 -2.18,2.18 -5.45,3.66 -11.33,6.48 -17.64,8.49 -6.3,2 -12.93,3 -19.89,3 -6.16,0 -12.07,-0.78 -17.73,-2.34 -5.66,-1.58 -10.96,-3.81 -15.9,-6.72 -4.93,-2.89 -9.41,-6.37 -13.45,-10.41 -4.04,-4.03 -7.5,-8.5 -10.41,-13.4 -2.9,-4.91 -5.13,-10.2 -6.7,-15.86 -1.57,-5.66 -2.36,-11.57 -2.36,-17.72 0,-6.15 0.79,-12.06 2.36,-17.72 1.57,-5.67 3.8,-10.98 6.7,-15.95 2.91,-4.95 6.37,-9.47 10.41,-13.54 4.04,-4.06 8.52,-7.53 13.45,-10.41 4.94,-2.87 10.24,-5.11 15.9,-6.7 5.66,-1.6 11.57,-2.4 17.73,-2.4 6.96,0 13.54,0.97 19.73,2.92 6.17,1.95 12,4.75 17.45,8.4z"/>
  <path class="fil2" d="M1445.99 144.12l0 66.98 7.31 0c1.34,0 2.64,-0.05 3.92,-0.13 1.27,-0.09 2.55,-0.19 3.83,-0.31 4.35,-0.35 8.42,-1.4 12.19,-3.18 3.77,-1.77 7.07,-4.09 9.88,-6.96 2.83,-2.88 5.03,-6.26 6.63,-10.15 1.59,-3.89 2.4,-8.13 2.4,-12.72 0,-4.88 -0.93,-9.36 -2.75,-13.46 -1.83,-4.09 -4.31,-7.63 -7.45,-10.62 -3.13,-2.99 -6.81,-5.31 -11.01,-6.97 -4.22,-1.65 -8.7,-2.48 -13.46,-2.48l-11.49 0zm79.68 33.62c0,6.15 -0.78,12 -2.35,17.55 -1.57,5.54 -3.8,10.71 -6.71,15.5 -2.9,4.79 -6.36,9.13 -10.4,13.02 -4.04,3.89 -8.51,7.21 -13.41,9.93 -4.91,2.73 -10.21,4.84 -15.9,6.32 -5.69,1.48 -11.58,2.22 -17.68,2.22l-42.94 0c-1.04,0 -1.98,-0.23 -2.79,-0.7 -0.81,-0.47 -1.21,-1.45 -1.21,-2.96l0 -121.67c0,-1.22 0.33,-2.21 1,-2.97 0.67,-0.75 1.67,-1.12 3,-1.12l42.94 0c6.1,0 11.97,0.75 17.64,2.26 5.66,1.51 10.95,3.66 15.85,6.44 4.91,2.79 9.39,6.13 13.46,10.02 4.06,3.89 7.53,8.24 10.4,13.06 2.87,4.82 5.11,10.02 6.71,15.6 1.59,5.57 2.39,11.4 2.39,17.5z"/>
  <path class="fil2" d="M1557.12 116.95c0,-1.22 0.33,-2.2 1,-2.92 0.66,-0.73 1.61,-1.09 2.82,-1.09l86.41 0c1.28,0 2.27,0.37 2.96,1.13 0.7,0.75 1.05,1.77 1.05,3.04l0 21.54c0,0.98 -0.35,1.92 -1.05,2.82 -0.69,0.89 -1.72,1.34 -3.05,1.34l-56.43 0 0 21.61 43.54 0c1.1,0 2.02,0.25 2.75,0.78 0.72,0.52 1.08,1.39 1.08,2.61l0 18.81c0,0.81 -0.32,1.6 -0.95,2.35 -0.64,0.76 -1.57,1.14 -2.79,1.14l-43.63 0 0 22.3 58.52 0c2.61,0 3.92,1.32 3.92,3.99l0 21.88c0,0.58 -0.23,1.1 -0.69,1.56 -0.23,1.63 -1.43,2.44 -3.57,2.44l-88.07 0c-1.15,0 -2.09,-0.31 -2.78,-0.92 -0.69,-0.61 -1.04,-1.55 -1.04,-2.83l0 -121.58z"/>
  <path class="fil2" d="M1690.63 116.77c0.11,-1.04 0.53,-1.94 1.22,-2.7 0.7,-0.75 1.68,-1.13 2.96,-1.13l30.14 0c2.14,0 3.54,1.11 4.18,3.31l23.68 79.08 23.87 -79.08c0.82,-2.2 2.29,-3.31 4.45,-3.31l29.78 0c1.05,0 1.99,0.36 2.83,1.09 0.85,0.72 1.32,1.64 1.43,2.74 2.04,20.44 4.12,40.72 6.24,60.84 2.11,20.12 4.19,40.4 6.23,60.84l0 0.43c0,2.26 -1.28,3.4 -3.84,3.4l-24.64 0c-2.68,0 -4.07,-1.28 -4.19,-3.83l-7.58 -67.33 -19.59 67.76c-0.12,0.58 -0.54,1.28 -1.26,2.09 -0.73,0.81 -1.44,1.22 -2.14,1.22l-22.9 0c-0.7,0 -1.44,-0.4 -2.23,-1.18 -0.78,-0.78 -1.2,-1.49 -1.26,-2.13l-19.6 -67.58 -7.57 67.15c-0.12,2.55 -1.54,3.83 -4.27,3.83l-24.65 0c-2.49,0 -3.74,-1.28 -3.74,-3.83l12.45 -121.68z"/>
  <path class="fil2" d="M1906.85 160.67l21.02 -45.03c0.36,-0.7 0.65,-1.21 0.88,-1.53 0.23,-0.31 0.46,-0.55 0.7,-0.69 0.23,-0.14 0.47,-0.23 0.74,-0.26 0.26,-0.03 0.56,-0.1 0.92,-0.22l33.52 0c0.41,0 0.75,0.13 1.01,0.39 0.26,0.27 0.39,0.57 0.39,0.91 0,0.64 -0.41,1.37 -1.22,2.18l-41.29 73.07 0 48.69c0,2.73 -1.33,4.1 -4,4.1l-26.05 0c-1.16,0 -2.06,-0.37 -2.7,-1.09 -0.64,-0.73 -0.95,-1.73 -0.95,-3.01l0 -48.85 -41.2 -72.91c-0.75,-0.75 -1.13,-1.48 -1.13,-2.18 0,-0.34 0.12,-0.64 0.35,-0.91 0.23,-0.26 0.55,-0.39 0.96,-0.39l33.53 0c0.4,0.12 0.72,0.19 0.96,0.22 0.22,0.03 0.46,0.12 0.7,0.26 0.22,0.14 0.46,0.38 0.69,0.69 0.23,0.32 0.55,0.83 0.95,1.53l21.22 45.03z"/>
  <path class="fil2" d="M1124.6 238.36l-45.72 -117.93 -2.18 -4.96c-0.35,-0.47 -0.87,-1.01 -1.56,-1.62 -0.7,-0.61 -1.54,-0.91 -2.53,-0.91l-22.3 0c-0.46,0 -0.95,0.1 -1.48,0.3 -0.52,0.21 -1.02,0.48 -1.48,0.83 -0.46,0.35 -0.85,0.73 -1.17,1.13 -0.33,0.41 -0.51,0.79 -0.57,1.14l-47.29 122.45c-0.47,1.16 -0.33,2.04 0.39,2.62 0.72,0.58 1.64,0.87 2.74,0.87l25.7 0c2.2,0 3.69,-1.07 4.44,-3.23 1.09,-2.96 2.21,-5.91 3.35,-8.84 0.19,-0.48 0.37,-0.97 0.55,-1.45l12.57 -35.35 -0.01 0c1.1,-2.95 2.22,-6.14 3.35,-9.53 1.13,-3.4 2.25,-6.84 3.35,-10.32 1.11,-3.48 2.22,-6.94 3.36,-10.36 1.13,-3.43 2.25,-6.63 3.35,-9.59l13.33 39.8 -20.42 24.13c-1.29,1.51 -0.21,3.84 1.77,3.84l27.68 0c2.63,6.74 6.26,14.7 7.43,17.67 0.4,1.17 0.97,1.99 1.7,2.49 0.72,0.49 1.76,0.74 3.09,0.74l24.99 0c1.57,0 2.68,-0.37 3.32,-1.09 0.63,-0.73 0.71,-1.67 0.25,-2.83z"/>
  <path class="fil2" d="M1387.63 238.31l-45.72 -117.92 -2.18 -4.97c-0.35,-0.46 -0.87,-1 -1.57,-1.61 -0.7,-0.61 -1.54,-0.91 -2.52,-0.91l-22.31 0c-0.46,0 -0.95,0.1 -1.47,0.3 -0.52,0.21 -1.02,0.48 -1.48,0.83 -0.46,0.35 -0.86,0.72 -1.18,1.13 -0.32,0.41 -0.51,0.78 -0.57,1.13l-47.28 122.46c-0.47,1.16 -0.34,2.03 0.38,2.61 0.73,0.58 1.65,0.87 2.75,0.87l25.69 0c2.21,0 3.69,-1.07 4.44,-3.21 1.1,-2.97 2.22,-5.91 3.36,-8.85 0.18,-0.48 0.37,-0.97 0.55,-1.46l12.57 -35.34 -0.02 0c1.11,-2.96 2.23,-6.14 3.35,-9.53 1.14,-3.4 2.26,-6.84 3.36,-10.33 1.1,-3.48 2.22,-6.93 3.36,-10.36 1.13,-3.43 2.25,-6.62 3.35,-9.58l13.33 39.8 -20.43 24.12c-1.28,1.52 -0.2,3.84 1.78,3.84l27.67 0c2.63,6.74 6.27,14.71 7.43,17.69 0.41,1.15 0.98,1.98 1.71,2.47 0.72,0.5 1.75,0.74 3.08,0.74l25 0c1.57,0 2.67,-0.35 3.31,-1.09 0.64,-0.72 0.72,-1.66 0.26,-2.83z"/>
  <path class="fil2" d="M699.44 236.53c-0.64,-1.1 -1.16,-2.06 -1.57,-2.87l-22.38 -42.16c3.13,-1.79 6.03,-3.96 8.67,-6.48 2.64,-2.53 4.92,-5.35 6.83,-8.45 1.92,-3.11 3.41,-6.45 4.49,-10.02 1.07,-3.57 1.61,-7.33 1.61,-11.28 0,-5.81 -1.12,-11.28 -3.35,-16.42 -2.24,-5.14 -5.3,-9.62 -9.19,-13.45 -3.89,-3.84 -8.45,-6.87 -13.68,-9.1 -5.22,-2.24 -10.83,-3.36 -16.8,-3.36l-56.27 0c-1.28,0 -2.24,0.37 -2.88,1.09 -0.63,0.73 -0.95,1.7 -0.95,2.92l0 121.58c0,1.28 0.35,2.23 1.05,2.83 0.69,0.62 1.62,0.92 2.78,0.92l25.87 0c2.67,0 4,-1.25 4,-3.75l0 -98.94 12.02 0c1.69,0 3.24,0.05 4.66,0.13 1.42,0.09 2.95,0.19 4.58,0.31 1.97,0.29 3.77,0.93 5.4,1.92 1.62,0.98 3.02,2.2 4.17,3.66 1.17,1.45 2.07,3.04 2.71,4.79 0.64,1.74 0.96,3.48 0.96,5.22 0,1.86 -0.3,3.67 -0.88,5.44 -0.58,1.77 -1.42,3.37 -2.52,4.79 -1.1,1.43 -2.47,2.62 -4.1,3.58 -1.62,0.95 -3.45,1.55 -5.49,1.78 -0.98,0.12 -1.88,0.21 -2.69,0.26 -0.82,0.06 -1.33,0.08 -2.38,0.08l-2.64 0.01 0 26.89c0,0.53 0.13,1.05 0.39,1.52l21.09 39.09c0.23,0.99 0.74,1.77 1.52,2.35 0.79,0.58 1.67,0.87 2.66,0.87l29.87 0c1.05,0 1.87,-0.25 2.48,-0.74 0.61,-0.49 0.91,-1.2 0.91,-2.14 0,-0.8 -0.31,-1.77 -0.95,-2.87z"/>
  <polygon class="fil0" points="314.25,155.96 314.25,83.8 157.13,0 157.13,72.16 "/>
  <polygon class="fil0" points="314.25,261.41 314.25,189.25 157.13,105.45 157.13,177.61 "/>
  <polygon class="fil2" points="0,262.16 0,190 157.13,106.2 157.13,178.36 "/>
 </g>
</svg>
