<?xml version="1.0" encoding="UTF-8"?>
<!DOCTYPE svg PUBLIC "-//W3C//DTD SVG 1.1//EN" "http://www.w3.org/Graphics/SVG/1.1/DTD/svg11.dtd">
<!-- Creator: CorelDRAW 2019 (64-Bit) -->
<svg xmlns="http://www.w3.org/2000/svg" xml:space="preserve" width="409px" height="35px" version="1.1" style="shape-rendering:geometricPrecision; text-rendering:geometricPrecision; image-rendering:optimizeQuality; fill-rule:evenodd; clip-rule:evenodd"
viewBox="0 0 406.92 34.87"
 xmlns:xlink="http://www.w3.org/1999/xlink">
 <defs>
  <style type="text/css">
   <![CDATA[
    .fil0 {fill:#377DFF;fill-rule:nonzero}
   ]]>
  </style>
 </defs>
 <g id="Layer_x0020_1">
  <metadata id="CorelCorpID_0Corel-Layer"/>
  <path class="fil0" d="M0 1.77c0,-0.32 0.09,-0.57 0.26,-0.75 0.17,-0.18 0.38,-0.28 0.62,-0.3l21.69 0c0.35,0 0.61,0.1 0.78,0.3 0.18,0.2 0.26,0.46 0.26,0.79l0 5.6c0,0.26 -0.09,0.5 -0.27,0.74 -0.18,0.23 -0.44,0.35 -0.79,0.35l-13.78 0 0 7.02 10.17 0c0.29,0 0.53,0.08 0.73,0.24 0.2,0.16 0.29,0.41 0.29,0.76l0 5.41c0,0.26 -0.08,0.51 -0.26,0.74 -0.17,0.23 -0.41,0.35 -0.71,0.35l-10.22 0 0 10.38c0,0.65 -0.35,0.97 -1.04,0.97l-6.91 0c-0.55,-0.07 -0.82,-0.39 -0.82,-0.95l0 -31.65z"/>
  <path class="fil0" d="M31.57 1.72c0,-0.27 0.08,-0.5 0.25,-0.7 0.16,-0.2 0.41,-0.3 0.74,-0.3l6.66 0c0.23,0 0.47,0.1 0.73,0.28 0.26,0.18 0.38,0.42 0.38,0.72l0 31.66c0,0.66 -0.36,0.99 -1.11,0.99l-6.66 0c-0.66,0 -0.99,-0.33 -0.99,-0.99l0 -31.66z"/>
  <path class="fil0" d="M88.28 23.5c0.26,0.21 0.59,0.49 0.99,0.85 0.4,0.35 0.86,0.7 1.37,1.05 0.77,0.51 1.53,0.92 2.29,1.2 0.75,0.29 1.55,0.43 2.38,0.43 0.77,0 1.41,-0.08 1.94,-0.26 0.52,-0.17 0.93,-0.4 1.23,-0.69 0.3,-0.29 0.52,-0.62 0.65,-0.99 0.12,-0.38 0.19,-0.78 0.19,-1.2 0,-0.47 -0.18,-0.89 -0.53,-1.26 -0.36,-0.37 -0.79,-0.7 -1.31,-0.99 -0.51,-0.28 -1.05,-0.53 -1.61,-0.73 -0.55,-0.21 -1.04,-0.37 -1.45,-0.51 -1.81,-0.63 -3.39,-1.32 -4.75,-2.05 -1.36,-0.73 -2.5,-1.55 -3.4,-2.44 -0.91,-0.9 -1.59,-1.89 -2.04,-2.97 -0.46,-1.08 -0.68,-2.28 -0.68,-3.61 0,-1.41 0.28,-2.68 0.85,-3.83 0.56,-1.15 1.37,-2.13 2.42,-2.94 1.05,-0.82 2.32,-1.45 3.8,-1.89 1.48,-0.45 3.13,-0.67 4.96,-0.67 1.37,0 2.69,0.15 3.95,0.46 1.27,0.31 2.51,0.81 3.73,1.49 0.51,0.3 1,0.61 1.46,0.94 0.46,0.32 0.87,0.64 1.22,0.94 0.34,0.3 0.62,0.59 0.82,0.86 0.21,0.27 0.31,0.51 0.31,0.7 0,0.2 -0.05,0.38 -0.15,0.55 -0.1,0.16 -0.24,0.35 -0.44,0.56l-3.47 3.7c-0.25,0.25 -0.51,0.38 -0.77,0.38 -0.21,0 -0.4,-0.06 -0.58,-0.18 -0.17,-0.12 -0.36,-0.27 -0.57,-0.45l-0.21 -0.18c-0.3,-0.26 -0.64,-0.53 -1.01,-0.8 -0.37,-0.27 -0.76,-0.51 -1.19,-0.73 -0.42,-0.22 -0.86,-0.4 -1.33,-0.55 -0.47,-0.14 -0.95,-0.21 -1.43,-0.21 -0.5,0 -0.97,0.04 -1.41,0.12 -0.43,0.09 -0.82,0.22 -1.15,0.4 -0.33,0.18 -0.6,0.42 -0.79,0.71 -0.2,0.3 -0.3,0.66 -0.3,1.08 0,0.42 0.11,0.79 0.32,1.1 0.21,0.31 0.53,0.6 0.95,0.86 0.42,0.26 0.95,0.51 1.58,0.75 0.62,0.23 1.35,0.48 2.18,0.76 1.6,0.52 3.08,1.08 4.43,1.66 1.35,0.58 2.52,1.27 3.5,2.06 0.98,0.8 1.75,1.74 2.3,2.85 0.55,1.1 0.83,2.44 0.83,4.01 0,1.66 -0.34,3.17 -1.02,4.52 -0.68,1.35 -1.61,2.5 -2.8,3.45 -1.18,0.96 -2.58,1.69 -4.18,2.21 -1.6,0.53 -3.32,0.79 -5.16,0.79 -1.74,0 -3.45,-0.32 -5.13,-0.94 -1.67,-0.62 -3.24,-1.45 -4.69,-2.5 -0.6,-0.44 -1.11,-0.87 -1.53,-1.29 -0.41,-0.43 -0.74,-0.77 -0.98,-1.03l-0.07 -0.06c-0.02,-0.03 -0.03,-0.05 -0.05,-0.06 -0.01,-0.01 -0.03,-0.02 -0.04,-0.03 -0.02,-0.03 -0.03,-0.05 -0.05,-0.06 -0.01,-0.01 -0.03,-0.02 -0.04,-0.03 -0.35,-0.38 -0.52,-0.69 -0.52,-0.91 0,-0.26 0.17,-0.55 0.52,-0.87l3.92 -3.74c0.32,-0.22 0.57,-0.34 0.77,-0.34 0.13,0 0.28,0.05 0.43,0.14 0.15,0.09 0.33,0.23 0.54,0.41z"/>
  <path class="fil0" d="M114.21 1.72c0,-0.3 0.1,-0.54 0.3,-0.73 0.21,-0.17 0.46,-0.27 0.76,-0.27l24.38 0c0.28,0 0.52,0.09 0.73,0.25 0.21,0.17 0.33,0.42 0.36,0.75l0 5.63c0,0.27 -0.09,0.52 -0.28,0.77 -0.19,0.25 -0.46,0.38 -0.81,0.38l-7.82 0 0 24.81c0,0.27 -0.09,0.52 -0.29,0.73 -0.2,0.22 -0.45,0.33 -0.77,0.33l-6.64 0c-0.26,0 -0.5,-0.1 -0.72,-0.3 -0.23,-0.21 -0.34,-0.46 -0.34,-0.76l0 -24.81 -7.8 0c-0.3,0 -0.55,-0.1 -0.76,-0.3 -0.2,-0.19 -0.3,-0.48 -0.3,-0.85l0 -5.63z"/>
  <path class="fil0" d="M217.73 3.17c0.26,0.15 0.45,0.35 0.57,0.59 0.12,0.24 0.1,0.53 -0.07,0.86l-3.83 5.44c-0.17,0.26 -0.34,0.4 -0.53,0.44 -0.19,0.04 -0.42,-0.02 -0.69,-0.19 -0.74,-0.56 -1.56,-0.99 -2.45,-1.29 -0.89,-0.31 -1.84,-0.46 -2.83,-0.46 -1.24,0 -2.38,0.24 -3.43,0.71 -1.04,0.47 -1.94,1.11 -2.69,1.92 -0.76,0.82 -1.35,1.77 -1.77,2.86 -0.42,1.08 -0.63,2.25 -0.63,3.49 0,1.24 0.21,2.4 0.63,3.48 0.42,1.08 1.01,2.02 1.77,2.83 0.75,0.81 1.65,1.44 2.69,1.91 1.05,0.47 2.19,0.71 3.43,0.71 0.99,0 1.94,-0.16 2.85,-0.47 0.91,-0.31 1.73,-0.74 2.47,-1.3 0.27,-0.17 0.5,-0.24 0.68,-0.21 0.18,0.03 0.36,0.17 0.54,0.41l3.88 5.58c0.17,0.33 0.19,0.61 0.07,0.84 -0.12,0.22 -0.31,0.41 -0.57,0.56 -1.42,0.95 -2.95,1.69 -4.59,2.21 -1.64,0.52 -3.36,0.78 -5.17,0.78 -1.61,0 -3.14,-0.2 -4.62,-0.61 -1.47,-0.41 -2.85,-0.99 -4.13,-1.74 -1.29,-0.76 -2.45,-1.66 -3.5,-2.71 -1.05,-1.05 -1.95,-2.21 -2.71,-3.49 -0.76,-1.28 -1.34,-2.65 -1.75,-4.13 -0.4,-1.47 -0.61,-3.01 -0.61,-4.61 0,-1.6 0.21,-3.14 0.61,-4.61 0.41,-1.47 0.99,-2.85 1.75,-4.15 0.76,-1.29 1.66,-2.46 2.71,-3.52 1.05,-1.06 2.21,-1.96 3.5,-2.71 1.28,-0.74 2.66,-1.33 4.13,-1.74 1.48,-0.42 3.01,-0.63 4.62,-0.63 1.81,0 3.52,0.26 5.13,0.77 1.61,0.5 3.12,1.23 4.54,2.18z"/>
  <path class="fil0" d="M271.62 8.84l0 17.42 1.9 0c0.35,0 0.69,-0.01 1.02,-0.03 0.33,-0.03 0.66,-0.05 0.99,-0.08 1.14,-0.09 2.2,-0.37 3.18,-0.83 0.98,-0.46 1.84,-1.06 2.57,-1.81 0.73,-0.75 1.31,-1.63 1.72,-2.64 0.42,-1.01 0.63,-2.12 0.63,-3.31 0,-1.27 -0.24,-2.44 -0.72,-3.5 -0.48,-1.07 -1.12,-1.99 -1.94,-2.77 -0.81,-0.77 -1.77,-1.38 -2.86,-1.81 -1.1,-0.43 -2.26,-0.64 -3.5,-0.64l-2.99 0zm20.73 8.74c0,1.6 -0.21,3.13 -0.61,4.57 -0.41,1.44 -0.99,2.79 -1.75,4.03 -0.75,1.25 -1.65,2.38 -2.71,3.39 -1.05,1.01 -2.21,1.87 -3.49,2.58 -1.27,0.71 -2.65,1.26 -4.13,1.65 -1.48,0.38 -3.01,0.57 -4.6,0.57l-11.17 0c-0.27,0 -0.52,-0.06 -0.73,-0.18 -0.21,-0.12 -0.31,-0.37 -0.31,-0.77l0 -31.65c0,-0.32 0.08,-0.58 0.26,-0.78 0.17,-0.19 0.43,-0.29 0.78,-0.29l11.17 0c1.59,0 3.11,0.2 4.59,0.59 1.47,0.39 2.85,0.95 4.12,1.68 1.28,0.72 2.45,1.59 3.5,2.6 1.06,1.01 1.96,2.15 2.71,3.4 0.75,1.26 1.33,2.61 1.75,4.06 0.41,1.45 0.62,2.97 0.62,4.55z"/>
  <path class="fil0" d="M300.53 1.77c0,-0.32 0.09,-0.57 0.26,-0.76 0.17,-0.19 0.42,-0.29 0.73,-0.29l22.49 0c0.33,0 0.59,0.1 0.77,0.3 0.18,0.19 0.27,0.46 0.27,0.79l0 5.6c0,0.26 -0.09,0.5 -0.27,0.74 -0.18,0.23 -0.45,0.35 -0.8,0.35l-14.68 0 0 5.62 11.33 0c0.29,0 0.52,0.06 0.71,0.2 0.19,0.14 0.29,0.36 0.29,0.68l0 4.89c0,0.22 -0.09,0.42 -0.25,0.62 -0.17,0.19 -0.41,0.29 -0.73,0.29l-11.35 0 0 5.8 15.23 0c0.68,0 1.02,0.35 1.02,1.04l0 5.69c0,0.16 -0.06,0.29 -0.18,0.41 -0.06,0.42 -0.38,0.63 -0.93,0.63l-22.92 0c-0.3,0 -0.54,-0.08 -0.72,-0.23 -0.18,-0.16 -0.27,-0.41 -0.27,-0.74l0 -31.63z"/>
  <path class="fil0" d="M335.27 1.72c0.03,-0.27 0.13,-0.5 0.31,-0.7 0.19,-0.2 0.44,-0.3 0.77,-0.3l7.84 0c0.56,0 0.93,0.29 1.09,0.86l6.16 20.58 6.22 -20.58c0.21,-0.57 0.59,-0.86 1.15,-0.86l7.75 0c0.27,0 0.52,0.1 0.74,0.29 0.22,0.19 0.34,0.42 0.37,0.71 0.53,5.32 1.07,10.59 1.62,15.83 0.55,5.23 1.09,10.51 1.62,15.83l0 0.11c0,0.59 -0.33,0.88 -1,0.88l-6.41 0c-0.69,0 -1.06,-0.33 -1.09,-0.99l-1.97 -17.52 -5.1 17.63c-0.03,0.15 -0.14,0.33 -0.33,0.54 -0.18,0.22 -0.37,0.32 -0.55,0.32l-5.96 0c-0.18,0 -0.37,-0.1 -0.58,-0.31 -0.2,-0.2 -0.31,-0.38 -0.33,-0.55l-5.1 -17.58 -1.97 17.47c-0.03,0.66 -0.4,0.99 -1.11,0.99l-6.41 0c-0.65,0 -0.97,-0.33 -0.97,-0.99l3.24 -31.66z"/>
  <path class="fil0" d="M391.52 13.14l5.47 -11.71c0.09,-0.19 0.17,-0.32 0.23,-0.4 0.06,-0.08 0.12,-0.14 0.18,-0.18 0.06,-0.04 0.12,-0.06 0.19,-0.07 0.07,-0.01 0.15,-0.03 0.24,-0.06l8.72 0c0.11,0 0.2,0.04 0.27,0.11 0.06,0.06 0.1,0.14 0.1,0.23 0,0.17 -0.11,0.36 -0.32,0.57l-10.74 19.01 0 12.67c0,0.71 -0.35,1.06 -1.04,1.06l-6.78 0c-0.3,0 -0.54,-0.09 -0.7,-0.28 -0.17,-0.19 -0.25,-0.45 -0.25,-0.78l0 -12.71 -10.72 -18.97c-0.19,-0.2 -0.29,-0.39 -0.29,-0.57 0,-0.09 0.03,-0.17 0.09,-0.23 0.06,-0.07 0.14,-0.11 0.25,-0.11l8.72 0c0.11,0.03 0.19,0.05 0.25,0.06 0.06,0.01 0.12,0.03 0.18,0.07 0.06,0.04 0.12,0.1 0.18,0.18 0.06,0.08 0.15,0.21 0.25,0.4l5.52 11.71z"/>
  <path class="fil0" d="M188 33.35l-11.9 -30.68 -0.56 -1.29c-0.09,-0.12 -0.23,-0.26 -0.41,-0.42 -0.18,-0.16 -0.4,-0.24 -0.66,-0.24l-5.8 0c-0.12,0 -0.25,0.03 -0.38,0.08 -0.14,0.06 -0.27,0.13 -0.39,0.22 -0.12,0.09 -0.22,0.19 -0.3,0.29 -0.09,0.11 -0.14,0.21 -0.15,0.3l-12.31 31.86c-0.12,0.3 -0.08,0.53 0.11,0.68 0.18,0.15 0.42,0.22 0.71,0.22l6.69 0c0.57,0 0.95,-0.27 1.15,-0.83 0.28,-0.78 0.58,-1.54 0.87,-2.3 0.05,-0.13 0.1,-0.26 0.15,-0.38l3.27 -9.2 -0.01 0c0.29,-0.77 0.58,-1.6 0.87,-2.48 0.3,-0.88 0.59,-1.78 0.88,-2.69 0.28,-0.9 0.57,-1.8 0.87,-2.69 0.3,-0.89 0.59,-1.72 0.87,-2.49l3.47 10.35 -5.31 6.28c-0.34,0.39 -0.06,1 0.46,1l7.2 0c0.68,1.75 1.63,3.82 1.93,4.6 0.11,0.3 0.25,0.51 0.44,0.64 0.19,0.13 0.46,0.19 0.81,0.19l6.5 0c0.41,0 0.7,-0.09 0.86,-0.28 0.17,-0.19 0.19,-0.43 0.07,-0.74z"/>
  <path class="fil0" d="M256.43 33.34l-11.89 -30.68 -0.57 -1.29c-0.09,-0.12 -0.23,-0.26 -0.41,-0.42 -0.18,-0.16 -0.4,-0.24 -0.65,-0.24l-5.81 0c-0.12,0 -0.24,0.03 -0.38,0.08 -0.14,0.06 -0.26,0.13 -0.39,0.22 -0.12,0.09 -0.22,0.19 -0.3,0.29 -0.08,0.11 -0.14,0.2 -0.15,0.3l-12.3 31.86c-0.12,0.3 -0.09,0.52 0.1,0.68 0.19,0.15 0.43,0.22 0.71,0.22l6.69 0c0.57,0 0.96,-0.28 1.15,-0.83 0.29,-0.78 0.58,-1.54 0.87,-2.31 0.05,-0.12 0.1,-0.25 0.15,-0.38l3.27 -9.19 0 0c0.28,-0.77 0.57,-1.6 0.87,-2.48 0.29,-0.88 0.58,-1.78 0.87,-2.69 0.29,-0.9 0.58,-1.8 0.87,-2.69 0.3,-0.89 0.59,-1.72 0.88,-2.5l3.46 10.36 -5.31 6.28c-0.33,0.39 -0.05,0.99 0.46,0.99l7.2 0c0.69,1.76 1.63,3.83 1.93,4.61 0.11,0.3 0.26,0.51 0.45,0.64 0.19,0.13 0.45,0.19 0.8,0.19l6.5 0c0.41,0 0.7,-0.09 0.87,-0.28 0.16,-0.19 0.18,-0.43 0.06,-0.74z"/>
  <path class="fil0" d="M77.38 32.88c-0.16,-0.29 -0.3,-0.54 -0.4,-0.75l-5.83 -10.97c0.82,-0.46 1.57,-1.03 2.26,-1.68 0.68,-0.66 1.28,-1.39 1.78,-2.2 0.49,-0.81 0.88,-1.68 1.16,-2.61 0.28,-0.93 0.42,-1.9 0.42,-2.93 0,-1.51 -0.29,-2.94 -0.87,-4.27 -0.58,-1.34 -1.38,-2.51 -2.39,-3.5 -1.01,-1 -2.2,-1.79 -3.56,-2.37 -1.36,-0.58 -2.82,-0.88 -4.37,-0.88l-14.64 0c-0.33,0 -0.58,0.1 -0.75,0.29 -0.16,0.19 -0.25,0.44 -0.25,0.76l0 31.63c0,0.33 0.09,0.58 0.28,0.74 0.18,0.16 0.42,0.23 0.72,0.23l6.73 0c0.69,0 1.04,-0.32 1.04,-0.97l0 -25.74 3.13 0c0.44,0 0.84,0.01 1.21,0.03 0.37,0.02 0.77,0.05 1.19,0.08 0.51,0.08 0.98,0.24 1.41,0.5 0.42,0.26 0.78,0.57 1.08,0.95 0.31,0.38 0.54,0.79 0.71,1.25 0.16,0.45 0.25,0.9 0.25,1.36 0,0.48 -0.08,0.95 -0.23,1.41 -0.15,0.46 -0.37,0.88 -0.66,1.25 -0.28,0.37 -0.64,0.68 -1.06,0.93 -0.43,0.25 -0.9,0.4 -1.43,0.46 -0.26,0.03 -0.49,0.06 -0.7,0.07 -0.22,0.02 -0.35,0.02 -0.62,0.02l-0.69 0.01 0 6.99c0,0.14 0.04,0.28 0.1,0.4l5.49 10.17c0.06,0.25 0.19,0.46 0.4,0.61 0.2,0.15 0.43,0.22 0.69,0.22l7.77 0c0.27,0 0.49,-0.06 0.64,-0.19 0.16,-0.13 0.24,-0.31 0.24,-0.55 0,-0.21 -0.08,-0.46 -0.25,-0.75z"/>
 </g>
</svg>
