<?xml version="1.0" encoding="UTF-8"?>
<!DOCTYPE svg PUBLIC "-//W3C//DTD SVG 1.1//EN" "http://www.w3.org/Graphics/SVG/1.1/DTD/svg11.dtd">
<!-- Creator: CorelDRAW 2019 (64-Bit) -->
<svg xmlns="http://www.w3.org/2000/svg" xml:space="preserve" width="3101px" height="892px" version="1.1" style="shape-rendering:geometricPrecision; text-rendering:geometricPrecision; image-rendering:optimizeQuality; fill-rule:evenodd; clip-rule:evenodd"
viewBox="0 0 311.31 89.53"
 xmlns:xlink="http://www.w3.org/1999/xlink">
 <defs>
  <style type="text/css">
   <![CDATA[
    .fil0 {fill:#7B878D}
   ]]>
  </style>
 </defs>
 <g id="Layer_x0020_1">
  <metadata id="CorelCorpID_0Corel-Layer"/>
  <g id="_1489121149168">
   <path class="fil0" d="M0.32 71.3c4.9,27.66 46.38,22.03 42.82,-6.48 -1.37,-10.96 -11.66,-20.15 -24.8,-18.29 -10.4,1.47 -20.26,12.13 -18.02,24.77z"/>
   <path class="fil0" d="M17.86 0.62c-6.92,1.77 -9.65,3.54 -13.28,8.07 -2.98,3.72 -5.52,10.75 -4.16,16.95 6.33,28.84 47.88,19.7 42.48,-8.27 -1.94,-10.03 -12.77,-19.89 -25.04,-16.75z"/>
   <path class="fil0" d="M88.94 72.48c3.17,-12.51 -6.3,-23.52 -16.22,-25.65 -13.1,-2.81 -23.92,6.02 -26.01,16.38 -4.07,20.13 18.22,33.54 33.89,22.13 3.99,-2.91 6.85,-6.98 8.34,-12.86z"/>
   <path class="fil0" d="M64.59 0.41c-29.54,6.33 -20.39,47.29 7.17,42.61 10.62,-1.81 19.43,-12.16 17.37,-24.87 -1.65,-10.19 -12.44,-20.33 -24.54,-17.74z"/>
   <path class="fil0" d="M113.15 25.35c5.49,-0.54 15.53,-1.6 15.02,5.25 -0.45,6.05 -9.36,5.2 -15.02,4.74l0 -9.99zm0.07 -15.68c4.97,-0.31 13.06,-1.25 12.67,5.08 -0.35,5.55 -7.23,4.59 -12.69,4.43l0.02 -9.51zm18.26 8.28c0.77,-1.36 1.1,-3.2 1.04,-4.9 -0.37,-11.93 -17.23,-9.67 -25.96,-9.38l0.04 37.68c7.2,0.46 19.42,0.93 24.3,-2.8 2.33,-1.78 4.43,-5.08 4.04,-9.62 -0.42,-4.82 -2.81,-5.62 -6.18,-7.65l2.72 -3.33z"/>
   <path class="fil0" d="M215.27 59.5c2.92,2.84 6.88,9.37 9.36,13.16 2.9,4.44 6.54,8.91 8.97,13.33l6.02 0.02 0 -37.81 -6.62 0.09 0.08 24.89c-2.46,-2.1 -10.18,-14.6 -13.35,-19.15 -4.73,-6.79 -2.38,-5.87 -11.1,-5.82l0.06 37.84 6.51 -0.24 0.07 -26.31z"/>
   <path class="fil0" d="M139.63 70.12c-2.54,-19.33 19.16,-21.69 21.48,-5.83 2.83,19.37 -19.38,21.91 -21.48,5.83zm28.31 1.18c4.55,-27.31 -30.86,-31.67 -35.07,-8.4 -4.98,27.57 31.11,32.09 35.07,8.4z"/>
   <path class="fil0" d="M145.87 20.83l0.03 -11.23c5.67,-0.05 12.62,-1 12.96,5.24 0.38,6.85 -7.05,6.21 -12.99,5.99zm-6.6 20.61l6.59 -0.08 0.06 -14.57c7.76,0.16 6.93,-1 9.99,4.55 1.57,2.85 3.69,6.85 4.79,9.97l7.56 0.13c-1.4,-4.73 -7.1,-14.06 -9.28,-17.35 8.65,-3.53 7.75,-13.03 3.59,-17.05 -5.05,-4.88 -15.45,-3.35 -23.21,-3.45l-0.09 37.85z"/>
   <path class="fil0" d="M265.11 41.42l6.62 -0.05 -0.03 -16.17 18.16 0 0.02 15.79c2.08,0.73 4.31,0.55 6.57,0.24l0 -37.45 -6.49 -0.2 -0.08 15.18 -18.14 0.29 -0.06 -15.24 -6.44 -0.23 -0.13 37.84z"/>
   <path class="fil0" d="M172.52 48.38c-0.1,20.01 -4.49,38.28 15.23,38.21 19.73,-0.06 15.34,-17.73 15.26,-38.34l-6.6 -0.08c0.05,6.92 -0.02,13.86 0.01,20.78 0.03,7.13 -0.92,11.61 -8.65,11.64 -7.66,0.03 -8.71,-4.58 -8.69,-11.63 0.01,-6.91 0.02,-13.83 0,-20.79l-6.56 0.21z"/>
   <path class="fil0" d="M234.82 33.52l-2.89 5.41c6.19,1.77 9.26,4.25 17.34,2.65 5.35,-1.06 9.58,-4.28 10.14,-9.83 1.51,-15.1 -21.87,-10.5 -18.93,-20.01 3.18,-5.42 12.09,-1.44 16.78,-0.24l-0.02 -6.11c-5.67,-3.06 -15.59,-2.97 -20.09,0.54 -5.4,4.2 -5.01,12.61 0.76,16.37 4.37,2.84 15.05,3.55 14.45,9.49 -0.87,8.54 -16.71,1.97 -17.54,1.73z"/>
   <path class="fil0" d="M131.23 50.02c-28.39,-11.16 -36.25,24.7 -19.91,34.19 4.79,2.77 14.73,3.62 19.96,-0.01l-1.65 -5.32c-4.76,1.26 -9.45,3.28 -14.18,0.02 -3.36,-2.31 -5.48,-6.39 -5.42,-11.72 0.06,-5.68 2.61,-9.99 5.89,-11.84 5.53,-3.12 8.58,-0.7 13.66,0.19l1.65 -5.51z"/>
   <path class="fil0" d="M272.52 49.95c-37.95,-12.8 -37.96,48.01 0.1,34.49l-1.76 -5.56c-4.75,1.04 -9.54,3.23 -14.2,-0.01 -7.79,-5.43 -6.71,-19.39 0.46,-23.51 5.82,-3.35 8.57,-0.39 13.71,0.04l1.69 -5.45z"/>
   <polygon class="fil0" points="183.9,9.67 195.85,9.66 195.97,41.36 202.56,41.44 202.57,9.74 214.65,9.57 214.63,3.83 184.01,3.6 "/>
   <polygon class="fil0" points="289.88,86.01 311.31,86.01 311.28,80.05 296.5,80.06 296.47,48.33 289.88,48.2 289.88,62.47 "/>
   <polygon class="fil0" points="277.6,86.03 284.14,85.9 284.14,48.27 277.55,48.23 "/>
   <polygon class="fil0" points="219.45,41.4 226.01,41.42 226.01,3.66 219.5,3.61 "/>
   <polygon class="fil0" points="172.52,41.28 179.08,41.47 179.08,3.6 172.61,3.65 "/>
  </g>
 </g>
</svg>
