<?xml version="1.0" encoding="UTF-8"?>
<!DOCTYPE svg PUBLIC "-//W3C//DTD SVG 1.1//EN" "http://www.w3.org/Graphics/SVG/1.1/DTD/svg11.dtd">
<!-- Creator: CorelDRAW 2019 (64-Bit) -->
<svg xmlns="http://www.w3.org/2000/svg" xml:space="preserve" width="3333px" height="898px" version="1.1" style="shape-rendering:geometricPrecision; text-rendering:geometricPrecision; image-rendering:optimizeQuality; fill-rule:evenodd; clip-rule:evenodd"
viewBox="0 0 1056.29 284.5"
 xmlns:xlink="http://www.w3.org/1999/xlink">
 <defs>
  <style type="text/css">
   <![CDATA[
    .fil0 {fill:#7B878D}
   ]]>
  </style>
 </defs>
 <g id="Layer_x0020_1">
  <metadata id="CorelCorpID_0Corel-Layer"/>
  <g id="_1489118740976">
   <path class="fil0" d="M200.87 214.05c-8.16,5.57 -0.49,11.52 -0.49,11.52l-20.09 17.88 -14.63 4.18c-1.24,-5.51 -0.43,-6.55 1.44,-10.53 2.51,-5.33 0.59,-4.72 4.84,-7.48 5.96,-4.5 9.11,1.12 13.52,-4.65 2.25,-2.94 0.44,-9.06 0.56,-13.81 -2.87,3.24 -14.68,12.87 -16.74,17.39 -9.48,-4.22 -1.95,-5.28 -12.24,-0.24 -1.03,-8.39 0.19,-5.07 1.73,-10.37 3.23,-11.09 -3.44,0.7 -0.33,-6.89 9.57,-7.06 12.05,6.64 15.35,-1.79 1.58,-4.05 0,-6.89 -3.6,-7.48 -4.49,-0.75 -5.39,2.08 -7.49,3.71 -4.5,-8.6 -3.15,-15.81 -4.9,-25.61 -2.63,-14.79 -1.94,-5.91 0.06,-10.28 2.37,-5.19 1.64,-5.06 1.22,-10.57 7.47,2.07 9.04,6.26 11.29,13.97 2.37,8.15 0.8,2.72 -1.63,8.83 -2.18,5.47 -0.69,7.57 1.59,10.21 4.15,-1.29 3.13,1.02 4.66,-5.08 3.06,-12.21 -7.28,-15 -4.58,-20.69 1.95,-1.77 2.82,-1.87 4.46,-3.41 8.35,-7.79 1.89,0.3 9.98,-7.24l1.42 1.37c0.16,0.15 0.48,0.48 0.66,0.64 0.48,0.42 10.41,5.4 11.08,11.29 -1.76,11.44 -7.02,3.38 -4.17,17.67 3.96,1.45 25.32,6.66 28.76,5.67 -5.36,-4.39 -12.52,-5.06 -17.98,-8.78 -8.12,-5.54 -9.23,-29.26 17.38,-21.2 10.23,3.09 4.09,-0.64 8.28,-1.33 3.77,-0.62 3.51,4.5 3.44,8.53 -16.56,13.16 -22.62,-7.46 -27.4,3.42 6.32,3.55 17.23,5.1 22.01,10.64 4.24,4.91 6.67,13.83 -7.55,16.57l4.04 3.14c-1.51,5.08 -4.71,11.25 -7.18,15.71 -4.32,7.77 -3.78,2.71 -11.45,7.53l-5.32 -12.44zm-25.06 -186.6c-0.05,-0.02 -7,-1.66 -2.95,-7.74 3.63,-5.46 4.22,3.54 5.12,-8.3 0.47,0.14 3.33,1.05 3.39,1.05 3.14,0.31 2.7,-0.36 4.72,-2.03l1.4 -1.38c6.52,9.26 4.13,-3.12 11.47,9.95 5.41,9.62 -3.65,6.61 -2.85,14.96 0.66,6.88 7.32,7.68 13.81,7.95 5.74,0.24 14.7,4.07 18.07,1.4 -9.85,-7.07 -26.78,-4.41 -26.14,-20.92 0.63,-16.3 18.16,-10.22 21.88,-9.79 11.88,1.36 -1.59,-2.49 8.27,-1.69 5.51,6.71 2.79,13.78 -4.91,14.61 -9.29,1 -10.83,-7.6 -18.08,-4.45 1.21,4.84 7.97,5.51 17.39,9.89 8.54,3.97 12.14,5.63 9.63,17.73 -1.63,2.98 -8,3.42 -10.66,5.35l2.13 6.25c7.32,1.53 1.49,0.15 8.01,-2.57l-0.5 32.15c-9.75,-2.77 -4.11,-1.62 -14.81,1.05 -1.5,-11.23 -1.91,-6.43 -4.21,-10.47 5.89,-8.11 4.61,-3.08 10.24,-7.92 -2.47,-3.67 -8.09,-5.87 -12.06,-6.33 1.57,9.39 4.93,-3.91 3.08,6.94 -0.81,4.77 -11.38,14.85 -13.53,18.52 -6.66,-3.79 -5.22,-3.54 -15.22,-1.71 1.06,-9.95 3.89,-4.2 2.97,-12.06 -0.02,-0.17 -0.12,-0.6 -0.13,-0.76 -1.14,-10.38 17.05,7.71 13.61,-4.83 -1.11,-4.04 -4.96,-3.67 -2.03,-14.22 -7.53,-0.67 -6.37,1.2 -8.3,5.78 -3.85,9.12 -11.21,7.02 -18.25,25.41 -7.06,-2.28 -6.81,-2.62 -16.11,0.97 1.01,-8.71 1.91,-6.7 2.26,-7.15l0.98 -5.28c-3.86,-4.26 -2.64,-0.52 -3.45,-5.04 9.25,-4.89 14.88,4.4 18.49,-6.66 1.25,-3.83 1.09,-2.13 -0.29,-5.32 -5.33,0.23 -3.87,0.36 -6.6,4.88l-6.34 -6.57c-3.15,-5.55 -9.76,-27.82 -9.76,-28.82 -0.03,-2.81 5.87,-3.95 2.48,-17.99 11.07,4.63 10.79,12.08 11.88,14.55 1.12,2.56 1.19,0.56 2.8,4.76 -0.94,7.93 -7.44,11.52 -0.19,18.28 6.29,-2.39 6.58,-11.05 5.04,-17.68l-1.75 -4.75zm-27.82 239.68c45.77,-22.11 78.95,-33.37 90.19,-87.2 5.1,-24.4 3.38,-59.15 2.96,-84.95 -0.48,-29.71 0.16,-59.67 -0.02,-89.41l-92.87 -0.64 0.33 94.89 92.36 0.01 0.04 50 -92.65 0.2 -0.34 117.1z"/>
   <path class="fil0" d="M459.04 113.09l18.63 -0.02 0.43 -52.42c8.2,-7.78 27.56,-15.37 28.81,3.92 0.99,15.22 -1.41,33.76 0.46,48.46l18.67 -0.06 0.22 -54.05c2.5,-0.94 27.11,-16.82 29.07,5.89 1.3,14.93 -1.54,33.91 0.62,48.28l18.14 -0.02c1.63,-12.39 2.11,-57.37 -3.33,-65.97 -13.32,-21.04 -35.84,-7.62 -47.89,-0.47 -1.39,-1.09 -0.75,-0.62 -2.2,-2.16l-6.33 -5.69c-3.91,-2.19 -8.78,-2.96 -13.67,-2.72 -13.63,0.64 -16.07,6.89 -24.02,9.6 -5.24,-3.79 -6.22,-7.42 -17.69,-10.75l0.08 78.18z"/>
   <path class="fil0" d="M739.81 212.93c9.88,-7.62 27.23,-14.23 28.78,6.09 1.15,15.13 -0.95,31.97 0.41,47.26l18.58 -0.48 0.22 -53.63c5.5,-2.01 10.49,-6.99 18.91,-6.39 17.82,1.28 6.6,32.72 10.57,60.51l18.32 -0.02c1.54,-12.81 2.19,-56.9 -3.52,-65.89 -12.49,-19.68 -32.46,-10.43 -47.78,-0.46l-2.99 -2.87c-5.88,-5.93 -10,-8.8 -20.46,-7.93 -10.37,0.86 -15.96,6.7 -22.76,9.82 -7.34,-5.19 -6.19,-7.53 -17.77,-10.69l0.51 78.04 18.51 -0.07 0.47 -53.29z"/>
   <path class="fil0" d="M858.16 113.5c4.85,-0.03 20.06,2.59 25.24,3.92 10.07,2.58 14.02,10.61 3.35,15.34 -14.47,6.41 -42.88,0.8 -28.59,-19.26zm11.51 -65.5c18.28,-4.01 23.17,23.68 6.79,27.17 -19.51,4.17 -22.21,-23.8 -6.79,-27.17zm-16.42 36.41c-1.18,1.85 -0.35,0.61 -1.9,2.3 -10.46,11.36 -6.35,13.49 -2.06,22.04 -14.16,5.01 -18.6,23.69 -3.03,33.86 14.51,9.47 53.9,8.92 63.33,-10.81 4.51,-9.43 0.72,-16.95 -4.49,-21.64 -11.1,-9.99 -31.68,-4.22 -42.73,-13.86 -1.08,-16.25 15.4,2.35 33.44,-13.92 10.11,-9.13 11.06,-22.64 3.76,-36.01 9.33,-1.79 11.23,-4.52 13.55,-12.88 -29.46,-2.22 -70.86,-5.56 -71.45,27.14 -0.24,13.41 5.74,18.49 11.58,23.78z"/>
   <path class="fil0" d="M147.99 267.13c-5.16,2.4 -21.04,11.59 -25.17,11.46 -3.21,-0.1 -21.9,-9.99 -24.5,-12.1 -10.6,-3.25 -25.26,-12.07 -35.96,-17.34 -12.22,-6.02 -23.07,-13.3 -30.21,-21.29 -17.38,-19.45 -27.24,-42.86 -26.52,-78.25l-0.1 -48.04 0.01 -1.92 -0.08 -94.73 92.25 -0.01 1.32 0.05 49.22 -0.03 92.87 0.64c0.18,29.74 -0.46,59.7 0.02,89.41 0.42,25.8 2.14,60.55 -2.96,84.95 -11.24,53.83 -44.42,65.09 -90.19,87.2zm-147.99 -103.34c2.14,5.31 4.61,24.38 7.48,33.31 10.24,31.88 30.96,45.94 61.52,61.24 7.55,3.78 50.39,26.57 54.81,26.15 3.74,-0.35 46.33,-22.65 53.83,-26.38 42.68,-21.21 64.15,-41.68 68.12,-95.76l0.35 -162.35 -246.11 0.09 0 163.7z"/>
   <path class="fil0" d="M28.87 27.91c-1.24,-0.6 -3.05,2.12 -3.66,-8.53 6.28,-4.52 5.52,2.85 6.15,-8.02l5.8 2.32c1.78,-5.33 1.14,-3.52 3.77,-4.73l1.28 2.78 3.01 0.76c4.12,0.4 -0.56,-0.94 2.55,-0.03 2.75,0.81 1.68,1.48 3.08,4.11 2.26,4.29 4.3,4.53 3.21,7.96 -1.81,5.68 -1.42,1.99 -2.73,2.99 -4.79,17.95 10.09,12.84 20.71,15.47 4.99,1.23 5.97,3.03 9.44,0.39 -7.79,-4.94 -18.74,-4.82 -24.02,-12.45 -6.6,-9.53 -0.79,-20.79 12.1,-19.82 2.57,0.2 6.04,1.35 7.6,1.5 10.01,1 1.42,-0.96 6.41,-1.29 4.68,-0.31 6.22,6.66 3.22,10.6 -7.85,10.29 -16.64,-3.33 -24.56,-1.22 3.33,9.26 33.63,9.35 27.42,26.27 -2.37,6.47 -7.06,3.43 -11.16,6.85l2.06 6.76c3.16,0.27 2.77,-0.02 6.75,-2.06 0.16,-0.09 0.49,-0.38 0.78,-0.46 1.25,12.84 -0.02,19.65 0.07,31.61 -10.08,-1.99 -3.06,-1.72 -14.43,1.25 -1.9,-14.05 -2.1,-3.79 -4.57,-10.5 4.7,-6.76 4.8,-3.78 10.31,-7.89 -2.42,-3.69 -7.04,-4.86 -10.8,-6.37l-1.15 3.73c7.19,-1.26 2.06,-0.53 3.81,1.32 -3.95,10.82 -9.88,13.36 -14.08,20.46 -6.52,-2.86 -5.81,-3.52 -15.35,-1.73 0.76,-6.12 1.23,-5.66 4.09,-9.3 -2.22,-4.95 -1.79,-1.29 -2.99,-4.69 9.65,-4.53 16.93,6.38 15.63,-2.9 -0.62,-4.47 -6.12,-5 -2.25,-14.89 -6.77,-0.93 -5.98,0.88 -8.32,5.63 -3.43,6.97 -9.82,8.91 -18.61,25.03 -5.35,0.17 -0.49,-4.49 -15.89,1.97 0.38,-4.39 0.12,-4.6 2.44,-7.55l1.5 -7.49c1.58,-2.62 1.4,-1.81 -1.21,-0.77 -6.77,0.83 -2.04,0.64 -3.39,-1.13 7.11,-6.2 6.31,-1.52 14.64,-1.7 2.31,-2.3 6.61,-6.16 4.16,-11.43 -8,0.14 -2.24,1.03 -7.91,5.11 -16.88,-26.65 -7.76,-20.46 -15.01,-35.55 1.6,-3.81 2.35,-2.78 3.37,-7.78 0.79,-3.89 -0.1,-6.37 -0.87,-10.15 10.07,3.54 9.26,6.51 11.38,12.48 5.24,14.74 4.35,2.54 0.47,15.41 -1.49,4.91 0.73,8.13 5.12,9.65 3.67,-3.61 4.84,-14.69 1.12,-21.2 -0.09,-0.16 -0.36,-0.51 -0.49,-0.78zm-23.33 71.74l92.44 -0.04 -0.27 -94.7 -92.25 0.01 0.08 94.73z"/>
   <path class="fil0" d="M340.01 192.05c1.79,-3.91 -2.77,5.09 0.99,-1.82l13.1 34.16 -25.16 -0.14 11.07 -32.2zm-27.33 74.2c2.43,-4.51 3.86,-9.17 5.68,-13.99 0.88,-2.33 1.49,-4.5 2.4,-6.85 3.47,-8.9 5.8,-5.48 39.84,-5.38 2.41,8.22 5.65,19.47 10.24,26.14l20.23 -0.1 -41.96 -105.08 -13.74 0c-4.67,2.7 -19.07,44.12 -21.89,52.06 -5.95,16.69 -15.9,37.12 -19.94,53.2l19.14 0z"/>
   <path class="fil0" d="M607.52 97.3c-0.99,-7.57 -1.42,-37.47 0.42,-43.94 18.11,-6.52 30.16,2.74 30.19,20.5 0.03,18.21 -12.19,27.04 -30.61,23.44zm-19.53 11.61c19.78,10.63 59.33,7.97 68.41,-24.34 4.15,-14.78 -0.43,-30.84 -8.68,-39.18 -10.8,-10.92 -22.94,-10.62 -40.64,-8.18l0 -36.95 -19.04 -0.17 -0.05 108.82z"/>
   <path class="fil0" d="M810.02 53.41c0.75,11.11 0.72,27.84 0.35,39.07 -0.26,7.74 -4.26,7.54 -12.79,6.49 -31.92,-3.96 -23.16,-56.82 12.44,-45.56zm0.17 -50.86l0.01 33.95c-11.22,0.96 -25.26,-2.93 -39.7,10.33 -8.2,7.52 -14.18,23.34 -10.7,39.68 6.2,29.1 41.06,33.52 69.42,23.31l0.03 -109.02 -19.06 1.75z"/>
   <path class="fil0" d="M51.7 221.87l4.71 -1.11c3.75,-0.16 -0.83,1.66 4.76,-0.02 1.46,-7.15 -5.46,-7 -1.14,-19.4 -6.47,1.15 -1.13,1.48 -6.32,9.31l-11.68 16.17c-5.17,-5.48 -2.26,-4.97 -11.84,-3.73 -0.22,-5.69 1.01,-5.79 1.29,-8.88 0.33,-3.74 -1.05,-0.82 -1.64,-4.85 5.78,-5.11 6.28,-3.23 11.77,-0.16 1.13,-4.25 -0.57,-7.1 -5.24,-8.02 -5.67,-1.11 -5.09,1.7 -8.64,4.52 -9.96,-6.83 -12.35,-21.05 -16.98,-32.82 5.16,-4.12 2.45,1.43 4.92,-8.03 0.08,-0.34 0.15,-0.72 0.25,-1.04l1.24 -2.92c5.47,2.68 1.07,0.41 2.7,2.63 4.67,2 6.88,8.15 6.9,13.51 0.02,4.26 -5.96,11.09 3.47,13.99 9.23,-18.09 -13.34,-19.27 2.61,-30.13 0.17,-0.12 0.53,-0.31 0.71,-0.41l5.66 -4.85c9.7,3.99 -0.98,3.57 10.27,3.21 2.68,10.69 6.05,4.94 4.42,12.19 -0.45,2 -11.86,14.22 3.13,17.34 5.88,1.23 23.02,5.24 25.43,2.99 -6.88,-6.29 -25.81,-2.13 -27.32,-18.55 -1.81,-19.8 17.12,-13.26 26.72,-8.37 4.39,-1.83 1.22,-1.99 4.25,-2.73 3.23,2.64 4.92,4.25 2.23,8.27l-8.09 5.38c-10.13,2.04 -10.29,-8.11 -18.31,-5.12 0.95,13.9 32.27,-0.08 28.14,27.05 -3.54,2.04 -4.54,2.87 -10.15,2.93l1.7 11.5c4.39,0.43 3.25,-1.31 6.15,0.77l0.18 27.73c-0.78,0.2 -1.24,0.13 -1.37,0.59 -0.65,2.41 -0.19,-1.38 -3.93,4.19 -1.74,2.58 -0.04,0.82 -2.06,3.21 -2.45,2.88 -0.38,0.91 -2.97,2.6l-3.62 -9.32c-1.76,-0.37 -7.24,3.79 -6.29,-4.94 0.49,-4.41 0.83,-3.18 3.95,-5.15 5.26,-3.31 2.41,0.69 5.39,-4.18 2.2,-5.98 0.78,-8.19 -4.44,-10.84 -2.35,4.25 7.31,-1.81 -11.88,23.05 -4.87,-2.92 -2.22,-5.02 -10.98,-2.9 0.48,-14.45 2.88,-1.92 -0.98,-13.48l2.92 -1.18zm46.62 44.62l0.17 -116.73 -92.86 -0.15c-0.72,35.39 9.14,58.8 26.52,78.25 7.14,7.99 17.99,15.27 30.21,21.29 10.7,5.27 25.36,14.09 35.96,17.34z"/>
   <path class="fil0" d="M377.73 106.86c-2.58,-5.65 -3.44,-7.75 -3.89,-14.88 -13.35,5.86 -27.09,10.62 -42.64,3.19 -10.6,-5.07 -18.52,-17.53 -18.15,-34.51 0.36,-16.51 8.24,-27.92 19.31,-33.41 18.37,-9.1 29.14,-0.03 43.32,2.45l-0.03 -17.06c-42.19,-18.8 -83.49,9.18 -82.94,50.67 0.31,22.91 10.09,37.46 25.74,45.94 15.25,8.26 46.03,8.54 59.28,-2.39z"/>
   <path class="fil0" d="M425.66 93.65c-5.9,8.13 -22.82,9.25 -25.05,-1.81 -2.89,-14.37 14.75,-12.95 25.07,-13.23l-0.02 15.04zm-39.71 -49.93l5.24 11.47c11.62,-1.33 36.05,-13.56 34.64,10.09 -12.08,1.65 -20.96,0.27 -31.82,5.12 -8.19,3.66 -14.55,11.69 -12.8,24.59 2.15,15.79 18.83,23.42 34.75,18.47 6.51,-2.02 7.22,-4.06 11.84,-6.89 4.59,1.45 9.49,6.16 17.61,8.69 -0.12,-16.6 2.93,-56.27 -4.21,-68.03 -9.95,-16.38 -38.65,-12.06 -55.25,-3.51z"/>
   <path class="fil0" d="M942.99 213.69c42.17,-28.68 26.8,24.92 30.25,52.59l18.39 0c1.76,-12.35 1.79,-57.44 -3.1,-66.58 -12.52,-23.41 -46.77,-0.82 -47.11,-0.7 -6.07,-5.26 -8.03,-8.04 -17.6,-10.81l0.48 78.09 18.67 0 0.02 -52.59z"/>
   <path class="fil0" d="M933.13 67.76c2.27,-23.08 26.95,-23.07 29.19,-0.09l-29.19 0.09zm46.13 40.21l-5.64 -12.6c-8.24,2.83 -15.81,6.39 -25.86,3.75 -8.03,-2.11 -14.55,-8.76 -13.91,-18.16l47.62 -0.01c-0.09,-17.4 -3.12,-37.55 -22.32,-43.21 -21.77,-6.43 -37.18,5.51 -42.59,21.83 -5.96,18 -0.66,38.63 10.98,47.95 12.43,9.94 37.97,9.23 51.72,0.45z"/>
   <path class="fil0" d="M865.04 220.49c0.89,-9.62 4.27,-16.37 14.35,-16.59 10.28,-0.23 13.93,7.49 14.84,16.89l-29.19 -0.3zm40.81 27.62c-8.75,3.06 -15.66,6.85 -26.46,3.92 -8.27,-2.25 -13.63,-8.03 -13.98,-18.07l47.95 -0.47c-0.07,-21.56 -4.9,-37.14 -22.63,-42.89 -17.15,-5.57 -34.73,1.92 -41.79,20.53 -7.8,20.6 -0.71,40.1 11.2,49.64 15.22,12.19 34.9,6.68 51.38,0.74l-5.67 -13.4z"/>
   <path class="fil0" d="M536.21 220.54c0.88,-9.76 4.16,-16.47 14.41,-16.65 10.15,-0.18 13.84,7.58 14.79,16.89l-29.2 -0.24zm40.82 27.57c-8.52,2.66 -15.61,7.04 -26.43,3.94 -8.15,-2.33 -13.76,-8.42 -14,-18.09l47.92 -0.56c-0.07,-22.47 -5.37,-37.08 -22.59,-42.78 -42.06,-13.9 -59.84,47.82 -30.49,70.1 15.82,12 34.17,7.17 51.16,0.76l-5.57 -13.37z"/>
   <path class="fil0" d="M658.86 248.25l-4.13 14.19c19.02,7.83 51.19,8.77 55.24,-11.97 2.7,-13.88 -3.35,-21.24 -11.77,-25.82 -10.4,-5.66 -23.44,-4.05 -22.28,-17.92 9.83,-4.67 17.31,-1.79 27.7,0.36l3.74 -14.08c-40.29,-15.91 -61.07,14.02 -46.43,31.94 6.37,7.81 28.39,11.16 30.6,18.47 5.28,17.52 -32.64,4.83 -32.67,4.83z"/>
   <path class="fil0" d="M489.74 241.37c2.34,20.12 -24.12,8.79 -32.89,6.33 -2.31,3.87 -3.88,9.48 -3.84,14.61 53.96,21.13 70.66,-23.45 43.2,-37.71 -4.41,-2.28 -9.42,-3.7 -14.08,-5.7 -6.3,-2.7 -9.3,-3.79 -7.85,-11.6 8,-5.17 18.39,-2.32 27.93,-0.15l3.83 -14.58c-59.22,-14.8 -58.23,27.26 -40.33,37.46 8.31,4.74 16.6,5.92 24.03,11.34z"/>
   <path class="fil0" d="M1056.29 262.66l0 -2.59 -5.13 -10.88c-23.32,7.82 -19.97,3.09 -19.42,-42.86 19.78,-3.43 12.95,2.25 22.86,-14.22l-22.91 -1.23c-1.94,-15.74 2.71,-19.45 -3.12,-22.23l-15.51 4.71 -0.63 17.58 -13.29 0 0.23 14.85 13.48 0.03c0.23,11.98 -1.97,44.68 2.5,52.85 7.35,13.45 27.36,9.44 40.94,3.99z"/>
   <path class="fil0" d="M595.52 247.81l-3.6 15.21c20.94,5.01 48.57,10.81 55,-12.29 8.35,-29.99 -29.8,-25.79 -34.57,-39.56 2.98,-11.52 18.6,-5.94 28.03,-4.31l4.09 -14.15c-47.47,-16.01 -71.44,25.68 -30.91,41.3 5.95,2.29 13.46,4.08 14.9,9.27 2.28,8.24 -5.77,9.78 -13.11,9.69 -9.04,-0.11 -12.64,-3.55 -19.83,-5.16z"/>
   <path class="fil0" d="M394.61 247.63c4.24,15.74 3.63,20.38 21.31,20.33 34.63,-0.09 38.41,-30.7 19.77,-42.25 -9.84,-6.09 -25.73,-5.01 -23.84,-18.87 9.18,-4.79 17.56,-1.67 27.62,0.19l3.8 -14.71c-13.34,-2.83 -27.66,-5.93 -39.99,0.92 -11.05,6.14 -15.26,21.77 -5.89,32.51 6.05,6.93 28.06,10.55 29.93,17.64 1.97,7.45 -6.09,9.56 -12.71,9.58 -7.96,0.02 -13.48,-3.29 -20,-5.34z"/>
   <path class="fil0" d="M687.73 45.66c-6.03,-7.9 3.56,-7.94 -18.99,-7.43l0.03 74.53 18.99 0.66c1.58,-34.17 -5.82,-52.99 8.52,-60.26 8.4,-4.26 12.39,-0.95 19.8,1.4l-0.33 -17.1c-18.4,-2.43 -18.94,1.59 -28.02,8.2z"/>
   <polygon class="fil0" points="727.11,108.18 727.25,113.38 746.21,113.37 746.46,108.18 746.43,37.91 727.11,37.92 "/>
   <path class="fil0" d="M144.34 134.86l-0.44 1.7c-1.98,2.42 3.63,2.32 -2.62,1.95 -0.02,-0.02 -1.83,-0.63 -1.99,-2.75 -0.42,-5.5 0.44,-1.47 1.99,-3.11 6.88,-0.4 1.41,-0.61 3.06,2.21zm-40.63 2.46l-2.54 0.21c-1.24,-5.08 0.07,-5.94 4.4,-2.94 0.69,6.47 0.66,1.49 -1.86,2.73zm6.94 -11.98c3.71,-3.98 6.87,-5.06 13.24,-4.69 5.88,0.35 8.22,2.78 10.4,5.95 -5.41,6.39 -19.14,9.2 -23.64,-1.26zm33.46 -5.24c-2.79,-0.54 -3.61,-0.17 -4.65,-2.18 -2.67,-5.11 1.85,-4 1.88,-4.04 3.64,1.21 3.66,2.85 2.77,6.22zm-40.55 -1.18l-1.55 0.09c-1.92,-2.29 -2.46,4.66 -1.57,-4.31 3.82,-0.91 2.53,-1.11 5.45,1.4 0.4,6.61 0.68,1.46 -2.33,2.82zm36.64 -8.47l-0.58 3.21c-6.84,-1.04 -3.28,1.65 -4.63,-2.94l-9.99 0c-1.06,2.84 2.37,2.32 -2.46,2.78 -4.79,0.46 -2.33,-0.14 -2.79,-2.92l-10.32 0.05 -0.95 2.5c-4.03,-0.98 -1.6,0.74 -3.89,-2.39l-6.87 -0.27 0.09 30.45 49.74 0.08 0.18 -30.35 -7.53 -0.2z"/>
   <path class="fil0" d="M103.8 153.17c0.21,-7.97 -1.89,-4.89 4.74,-5.59l-0.01 5.53c1.41,9.4 0.98,0.98 -1.58,4.79 -4.67,-1.99 -2.76,0.57 -3.15,-4.73zm1.57 -48.9l3.85 0.29 -0.3 2.39c1.46,0.01 7.41,0.23 8.52,-0.02 4.61,-1.05 0.36,0.06 5.35,-3.65 6.1,6.74 9.37,5.14 14.53,0.03 5.99,4.91 0.45,3.37 10.18,4.42l-7.3 2.72 7.53 0.2 -0.18 30.35 -49.74 -0.08 -0.09 -30.45 6.87 0.27 -0.21 -2.41c-6.99,0.09 -5.05,-0.35 -6.59,-1.55 5.7,-0.2 5.03,1.26 7.58,-2.51zm5.67 41.34c1.53,-2.59 -2.29,-0.95 3.78,-1.85l19.27 0.65 0.43 3.69 1.75 -0.27 4.12 -0.3 0.3 5.96c0.81,9.67 0.82,0.96 -2.05,4.86l-4.17 -1.79 0.18 3.31 8.51 0.01 0.13 -15.16 7.63 -0.36c0.01,-7.2 1.24,-36.18 -0.87,-40.82 -14.99,0 -7.64,-4.2 -14.43,-2.23 -2.33,0.67 -3.37,2.51 -7.42,1.94 -3.06,-0.44 -2.26,-1.01 -5.41,-2.63 -5.27,1.58 -2.5,2.66 -7.99,2.84 -6.06,0.2 -3.12,-0.76 -7.85,-2.85 -3.38,1.53 -2.07,1.65 -5.44,2.52 -2.26,0.58 -4.37,0.44 -7.12,0.72l-0.12 39.92 7.47 0.45 0.22 15.48 9.15 0.12 -0.07 -14.21z"/>
   <path class="fil0" d="M733.47 3.82c-16.01,6.25 -6.1,26.14 7.38,21.35 14.3,-5.08 6.68,-26.83 -7.38,-21.35z"/>
   <path class="fil0" d="M5.54 99.65l-0.01 1.92c20.32,-4.76 76.7,3.61 92.99,-1.82l0.51 -94.79 -1.32 -0.05 0.27 94.7 -92.44 0.04z"/>
   <path class="fil0" d="M118.67 60.65l4.66 6.03c0.39,-0.75 1.06,-2.25 1.35,-2.63l3.9 -3.94c-2.42,-1.91 -3.99,-4.9 -4.33,-8.8 -0.68,-7.79 3.9,-4.63 -1.25,-8.76 -2.61,4.14 2.43,8.4 -4.33,18.1z"/>
   <path class="fil0" d="M124.42 163.94l0.35 -3.61c-0.35,-0.05 1.06,-3.4 -2.28,0.24 -2.62,2.86 -0.39,0.96 -0.36,2.28 0.28,10.3 2.14,3.63 -4.09,15.51 3.48,1.66 3.33,0.69 4.91,5.02 4.39,-5.82 -1.19,-2.85 5.83,-4.79 -1.48,-2.1 -3.52,-5.13 -4.24,-8.74 -0.71,-3.52 -0.42,-2.94 -0.12,-5.91z"/>
   <path class="fil0" d="M229.97 121.31c-2.06,-1.65 -1.56,-0.27 -2.99,-3.75 -4.45,-10.81 4.3,-9.23 -2.52,-13.34 -2.49,4.38 2.93,11.7 -4.65,16.55 0.28,0.36 0.66,0.76 0.9,1.04l3.76 6.24 5.5 -6.74z"/>
   <path class="fil0" d="M165.21 111.96c-0.25,-7.86 4.62,-4.75 -2.17,-8.15l0.29 4.81c0.67,4.88 0.8,9.11 -3.8,12.56l5.52 6.87 3.65 -6.24c0.15,-0.63 0.57,-0.69 0.84,-1.04 -2.76,-1.96 -4.2,-4.71 -4.33,-8.81z"/>
   <path class="fil0" d="M41.15 138.55c-10.51,-13.63 3.35,-13.32 -6.18,-17.66l0.62 9.65c-0.53,4.23 -2.06,6.32 -4.05,8.02l5.41 6.44 2.85 -4.89c0.14,-0.17 0.56,-0.31 0.66,-0.77 0.11,-0.48 0.47,-0.52 0.69,-0.79z"/>
   <path class="fil0" d="M26.56 121.32c-7.27,-5.77 -2.36,-12.42 -3.47,-17.49 -7.17,3.5 -1.23,0.38 -2.28,9.21 -0.5,4.2 -1.66,5.87 -4.25,7.66 3.02,4.07 3.25,2.92 4.54,7.32l5.46 -6.7z"/>
   <path class="fil0" d="M122.79 211.05c-2.8,5.15 3.23,8.53 -3.9,17.28l2.48 2.9c1.45,1.97 0.58,0.25 1.73,3.43l3.14 -4.04c0.17,-0.21 0.54,-0.61 0.68,-0.78l1.46 -1.77c-2.33,-1.99 -3.99,-4.97 -4.17,-9.05 -0.33,-7.26 4.4,-4.47 -1.42,-7.97z"/>
   <path class="fil0" d="M103.57 36.1c4.66,1.55 3.46,1.27 6,4.67 2.47,-7.4 -0.67,-1.77 5.19,-5.2 -1.96,-2.17 -3.32,-3.19 -4.47,-7.36l-0.15 -10.52c-5.53,0.26 -1.05,1.7 -1.76,8.55 -0.48,4.55 -2.97,7.92 -4.81,9.86z"/>
   <path class="fil0" d="M66.28 121.96c-0.09,-0.35 -0.62,0.11 -0.93,0.17 1.01,3.78 1.26,9.62 -1.02,13.38 -2.39,3.95 -0.86,1.24 -2.77,2.73l5.63 6.71 4.87 -6.98c-3.23,-1.9 -4.42,-4.13 -4.64,-8.78 -0.14,-3.06 0.67,-5.58 0.67,-5.67 -0.32,-3.64 -1.55,-0.45 -1.81,-1.56z"/>
   <path class="fil0" d="M199.94 121c-7.59,-4.47 -2.77,-12.42 -3.86,-17.13 -7.02,3.63 -1.22,0.44 -2.05,9.45 -0.43,4.65 -1.35,5.89 -4.43,7.7l1.62 1.83c0.2,0.23 0.51,0.54 0.73,0.79l3.15 4.26c1.07,-3.07 0.34,-1.69 1.79,-3.64l3.05 -3.26z"/>
   <path class="fil0" d="M104.32 85.79l5.12 6.28c1.5,-4 2.07,-3.45 4.66,-6.96 -7.43,-5.16 -2.32,-12.29 -4.51,-16.48 -1.91,1.2 -1.63,-2.87 -1.9,2.25 -0.01,0.3 0.89,2.73 0.82,5.59 -0.13,4.77 -2.05,7.14 -4.19,9.32z"/>
   <path class="fil0" d="M114.74 203.44c-7.3,-6.37 -4.43,-12.73 -4.42,-15.98l-0.61 -1.74c-5.39,0.03 3.69,11.25 -6.08,16.81 0.32,0.31 0.73,0.64 0.98,0.87l5.1 5.32c2.34,-7.14 -0.28,-1.73 5.03,-5.28z"/>
   <path class="fil0" d="M109.95 246.36c-0.79,-4.21 -0.13,-2.8 0.15,-5.6l-0.11 -3.77c-7.08,-0.01 4.12,5.92 -5.75,17.75l2.97 2.27c0.39,0.37 2.19,2.74 2.41,3.03 2.35,-7.39 -0.65,-1.79 5.13,-5.22 -2.08,-2.1 -3.94,-3.95 -4.8,-8.46z"/>
   <path class="fil0" d="M138.6 194.41l-2.61 -0.13c-0.45,5.67 -0.75,6.02 -4.04,8.94l5.37 5.19 3.84 -4.15c0.19,-0.17 0.74,-0.2 0.88,-0.69 0.15,-0.51 0.63,-0.45 0.93,-0.7 -3.89,-2.4 -3.89,-3.33 -4.37,-8.46z"/>
   <path class="fil0" d="M138.86 246.44l-3.15 -0.18c-0.7,5.84 -0.54,5.02 -3.74,8.32l5.35 5.18c0.24,-0.36 1.61,-2.32 2.16,-2.85 0.2,-0.21 0.57,-0.48 0.77,-0.67l2.65 -1.95c-3.81,-2.66 -3.43,-2.99 -4.04,-7.85z"/>
   <path class="fil0" d="M181.01 130.51l-2.88 0.01c-0.58,5.04 -1.4,6.77 -3.49,9.35 5.38,2.31 1.67,-0.14 4.93,4.76l5.39 -6.03c-3.36,-2.5 -3.26,-1.83 -3.95,-8.09z"/>
   <path class="fil0" d="M138.9 27.15l-3.21 -0.12c-0.73,5.88 -0.61,4.89 -3.71,8.32l3.19 2.31c0.46,0.44 1.96,2.55 2.15,2.82 0.28,-0.42 1.59,-2.34 2.14,-2.86 0.19,-0.17 0.54,-0.44 0.73,-0.61l2.26 -1.45c-2.87,-3.04 -2.94,-3.56 -3.55,-8.41z"/>
   <path class="fil0" d="M211.19 129.8l-2.42 0.22c-0.75,6.64 -1.28,6.44 -4.21,8.59 0.26,0.23 0.64,0.5 0.81,0.65 0.16,0.14 0.58,0.47 0.78,0.64 0.19,0.17 0.55,0.44 0.74,0.63 0.19,0.18 0.51,0.44 0.69,0.63l2.36 3.47 5.05 -5.72c-3.44,-2.45 -3.71,-3.35 -3.8,-9.11z"/>
   <path class="fil0" d="M80.45 114.66c-0.66,4.03 -1.88,5.89 -3.62,8.04 5.5,2.44 1.7,-1.2 5.03,4.86 4.22,-5.25 -1.03,-1.68 5.11,-4.86 -2.33,-2.83 -3.03,-4.72 -3.52,-9.92 -2.04,1.2 -1.17,-0.08 -3,1.88z"/>
   <path class="fil0" d="M50.03 115.9l-3.39 6.8c5.86,2.65 1.61,-1.78 4.85,4.85 0.98,-1.21 1.46,-2.32 2.5,-3.45l2.93 -2.7c-3.69,-2.92 -3.27,-2.6 -3.89,-8.44 -0.29,0.27 -0.68,0.61 -0.88,0.8 -0.18,0.17 -0.62,0.58 -0.8,0.76 -0.22,0.2 -1.03,1.04 -1.32,1.38z"/>
   <path class="fil0" d="M138.66 77.97l-2.75 -0.19c-0.69,5.1 -0.99,6.38 -3.35,9.27 5.28,2.9 1.08,-0.51 4.76,4.81 3.59,-5.45 -0.6,-2.15 4.97,-4.81 -1.99,-3.04 -2.9,-4.12 -3.63,-9.08z"/>
   <path class="fil0" d="M1054.6 192.11c-1.08,-2.38 0.91,-1.94 -10.18,-1.81 -3.93,0.05 -7.87,0.01 -11.8,0.01l0.03 -22.51c-8.02,-1.82 -0.97,-0.44 -4.08,0.85 5.83,2.78 1.18,6.49 3.12,22.23l22.91 1.23z"/>
   <path class="fil0" d="M134.65 159.87l-0.18 -3.31 0.05 -8.46 -0.43 -3.69 -19.27 -0.65c-6.07,0.9 -2.25,-0.74 -3.78,1.85l22.41 -0.66 -0.08 12.03c0.42,2.34 0.62,1.78 1.28,2.89z"/>
   <path class="fil0" d="M134.47 156.56l4.17 1.79c2.87,-3.9 2.86,4.81 2.05,-4.86l-4.53 0.01 0.11 -5.67 -1.75 0.27 -0.05 8.46z"/>
   <path class="fil0" d="M109.43 110.63l10.32 -0.05c-0.41,-3.38 0.78,-1.65 -2.24,-2.8l-8.67 0.07 0.59 2.78z"/>
   <path class="fil0" d="M103.8 153.17l4.73 -0.06 0.01 -5.53c-6.63,0.7 -4.53,-2.38 -4.74,5.59z"/>
   <path class="fil0" d="M125 110.72l9.99 0c-1.3,-3.59 1.02,-1.8 -2.95,-2.92l-3.96 0c-3.92,1.07 -2,-0.82 -3.08,2.92z"/>
   <polygon class="fil0" points="140.69,153.49 140.39,147.53 136.27,147.83 136.16,153.5 "/>
   <path class="fil0" d="M108.53 153.11l-4.73 0.06c0.39,5.3 -1.52,2.74 3.15,4.73 2.56,-3.81 2.99,4.61 1.58,-4.79z"/>
   <polygon class="fil0" points="135.71,246.26 138.86,246.44 138.95,240.33 135.69,240.38 "/>
   <polygon class="fil0" points="135.69,27.03 138.9,27.15 138.84,21.1 135.79,21.16 "/>
   <path class="fil0" d="M50.03 115.9c0.29,-0.34 1.1,-1.18 1.32,-1.38 0.18,-0.18 0.62,-0.59 0.8,-0.76 0.2,-0.19 0.59,-0.53 0.88,-0.8l0.01 -4.62 -2.53 -1.47 -0.48 9.03z"/>
   <path class="fil0" d="M80.45 114.66c1.83,-1.96 0.96,-0.68 3,-1.88l-0.02 -4.39 -2.68 -1.23 -0.3 7.5z"/>
   <polygon class="fil0" points="135.91,77.78 138.66,77.97 138.66,72.26 135.95,72.32 "/>
   <polygon class="fil0" points="135.99,194.28 138.6,194.41 138.94,189.07 135.28,189.92 "/>
   <polygon class="fil0" points="178.13,130.52 181.01,130.51 180.87,124.99 178.27,124.99 "/>
   <path class="fil0" d="M135.28 189.92l3.66 -0.85c0.44,-3.22 0.27,-2.83 -2.96,-4.11l-0.7 4.96z"/>
   <polygon class="fil0" points="208.77,130.02 211.19,129.8 211.19,124.98 208.63,125.04 "/>
   <path class="fil0" d="M135.79 21.16l3.05 -0.06c0.85,-3.96 0.21,-2.95 -2.79,-4.05l-0.26 4.11z"/>
   <polygon class="fil0" points="135.95,72.32 138.66,72.26 138.94,68.4 135.89,68.35 "/>
   <path class="fil0" d="M80.75 107.16l2.68 1.23 0.15 -3.02c-1.05,-0.46 2.02,-3.51 -3.04,-0.16 -1.64,1.09 -0.38,1.09 0.21,1.95z"/>
   <path class="fil0" d="M135.69 240.38l3.26 -0.05c-0.56,-3.97 1.3,-1.2 -1.63,-3.88 -2.69,2.45 -1.34,-0.58 -1.63,3.93z"/>
   <path class="fil0" d="M178.27 124.99l2.6 0 0.4 -2.3c-0.32,-0.18 -0.69,-0.65 -0.85,-0.69 -6.24,-1.79 -0.1,-1.15 -2.82,0.93l0.67 2.06z"/>
   <path class="fil0" d="M208.63 125.04l2.56 -0.06c0.1,-5.02 1.24,4.85 -0.02,-2.2l-1.23 -1.72c-3.1,2.61 0.11,-2.47 -1.75,1.87 -0.55,1.28 -0.15,0.58 0.44,2.11z"/>
   <path class="fil0" d="M50.51 106.87l2.53 1.47 0.14 -2.97c-1.41,-0.59 0.34,-1.29 -2.15,-0.32 -2.11,0.81 -0.52,1.79 -0.52,1.82z"/>
  </g>
 </g>
</svg>
