<?xml version="1.0" encoding="UTF-8"?>
<!DOCTYPE svg PUBLIC "-//W3C//DTD SVG 1.1//EN" "http://www.w3.org/Graphics/SVG/1.1/DTD/svg11.dtd">
<!-- Creator: CorelDRAW 2019 (64-Bit) -->
<svg xmlns="http://www.w3.org/2000/svg" xml:space="preserve" width="2187px" height="897px" version="1.1" style="shape-rendering:geometricPrecision; text-rendering:geometricPrecision; image-rendering:optimizeQuality; fill-rule:evenodd; clip-rule:evenodd"
viewBox="0 0 133.39 54.72"
 xmlns:xlink="http://www.w3.org/1999/xlink">
 <defs>
  <style type="text/css">
   <![CDATA[
    .fil0 {fill:#7B878D}
   ]]>
  </style>
 </defs>
 <g id="Layer_x0020_1">
  <metadata id="CorelCorpID_0Corel-Layer"/>
  <g id="_1489125268624">
   <path class="fil0" d="M81.89 18.95c5.17,-0.91 9.2,2.83 9.92,7.35 0.92,5.69 -2.15,10.24 -6.94,11.03 -11.92,1.96 -14.37,-16.36 -2.98,-18.38zm10.13 -2.05c-1.27,-0.63 -1.01,-1.03 -3.01,-2.19 -12.33,-7.15 -26.54,7.41 -18.65,21.7 1.11,2.02 3.38,4.07 5.5,5.18 3.76,1.98 9.26,2.26 13.12,-0.1l3.13 -2.43c0.14,4.1 2.75,4.84 4.85,3.59 2.04,-1.21 1.45,-4.85 1.45,-7.69 0,-2.18 0.32,-30.25 -0.26,-31.65 -0.91,-2.18 -4.49,-2.56 -5.76,-0.22 -0.74,1.35 -0.38,11.89 -0.37,13.81z"/>
   <path class="fil0" d="M109.66 28.88c-0.79,-12.77 16.28,-13.82 17.35,-1.91 0.49,5.48 -2.74,9.87 -7.67,10.34 -5.33,0.5 -9.38,-3.58 -9.68,-8.43zm-4.09 25.84l1.68 0c2.88,-2.22 2.38,-2.09 2.37,-6.46 -0.01,-2.99 0,-5.99 0,-8.99 1.17,0.52 1.26,1.2 2.64,2.01 6.42,3.76 14.35,1.74 18.48,-4.03 2.12,-2.95 1.52,-4.37 2.65,-7.47l0 -4.45c-0.12,-0.25 -0.16,-0.24 -0.4,-0.95 -0.09,-0.26 -0.18,-0.64 -0.26,-0.93 -1.28,-4.54 -3.63,-7.68 -8.38,-9.5 -2.7,-1.04 -5.51,-1.35 -8.41,-0.65 -4.03,0.98 -4.2,2.47 -6.43,3.87 -0.15,-5.9 -5.88,-5.04 -6.29,-1.24l-0.03 34.24c0.01,3.14 0.43,3.11 2.38,4.55z"/>
   <path class="fil0" d="M22.54 24.25l2.16 0.25 0.23 1.11c-0.42,-4.38 2.91,-6.78 7.33,-5.93 4.52,-7.19 1.73,-14.02 -5.92,-17.53 -2.56,-1.18 -5.31,-1.28 -7.38,-2.15l-4.9 0c-1.9,0.77 -4.85,0.82 -6.92,1.43 -2.24,0.66 -4.51,1.71 -6.46,2.25 1.3,7.48 7.64,14.6 14.11,18.01 2.84,1.5 4.58,1.6 7.75,2.56z"/>
   <path class="fil0" d="M27.83 30.02c-0.71,1.71 -1.86,3.16 -2.36,5.28l-0.45 1.52c0.51,3.75 0.56,5.01 2.43,7.93 5.95,9.3 17.23,8.78 20.09,9.97l4.14 0c0.44,-9.89 0.72,-18.68 -7.44,-24.85 -1.39,-1.05 -7.23,-4.06 -9.13,-2 -0.8,0.87 -1.3,1.6 -2.44,2.14 -1.79,0.84 -3.06,0.36 -4.84,0.01z"/>
   <path class="fil0" d="M0 43.92l0 1.24c8.51,0.82 16.61,-0.78 22.6,-6.6 1.35,-1.32 1.25,-0.76 2.13,-2.63 0.4,-0.27 0.48,-0.35 0.74,-0.63 0.5,-2.12 1.65,-3.57 2.36,-5.28 -1.43,-1.46 -2.34,-1.86 -2.9,-4.41l-0.23 -1.11 -2.16 -0.25c-6.36,0.32 -11.87,2.71 -15.4,5.7 -5.1,4.32 -6.22,11.85 -7.14,13.97z"/>
   <path class="fil0" d="M60.38 13.11c-2.83,0.76 -2.33,4.24 -2.33,7.03l-0.01 18.25c0.01,2.91 0.95,5.94 4.55,4.51 2.5,-1 1.87,-4.56 1.87,-7.18 0,-3.04 0,-6.08 0,-9.12 0,-4.06 1.81,-15.08 -4.08,-13.49z"/>
   <path class="fil0" d="M62.56 0l-2.29 0c-1.96,1.16 -3.56,1.33 -3.54,4.56 0,2.62 1.57,4.36 4.1,4.55 3.95,0.3 8.37,-4.78 1.73,-9.11z"/>
   <path class="fil0" d="M24.73 35.93l0.29 0.89 0.45 -1.52c-0.26,0.28 -0.34,0.36 -0.74,0.63z"/>
  </g>
 </g>
</svg>
