<?xml version="1.0" encoding="UTF-8"?>
<!DOCTYPE svg PUBLIC "-//W3C//DTD SVG 1.1//EN" "http://www.w3.org/Graphics/SVG/1.1/DTD/svg11.dtd">
<!-- Creator: CorelDRAW 2019 (64-Bit) -->
<svg xmlns="http://www.w3.org/2000/svg" xml:space="preserve" width="4267px" height="914px" version="1.1" style="shape-rendering:geometricPrecision; text-rendering:geometricPrecision; image-rendering:optimizeQuality; fill-rule:evenodd; clip-rule:evenodd"
viewBox="0 0 742.54 159.1"
 xmlns:xlink="http://www.w3.org/1999/xlink">
 <defs>
  <style type="text/css">
   <![CDATA[
    .fil0 {fill:#7B878D}
   ]]>
  </style>
 </defs>
 <g id="Layer_x0020_1">
  <metadata id="CorelCorpID_0Corel-Layer"/>
  <g id="_1489118586624">
   <path class="fil0" d="M61.13 134.81c-5.05,-9.93 2.9,-15.93 9.23,-11.71 6.75,4.5 4.81,15.13 -9.23,11.71zm14.22 -43.64c40.12,-3.26 42.28,-45.81 5.39,-50.58 -16.67,-2.16 -32.55,4.06 -41.47,12.09 -2.35,2.12 -4.74,5.22 -7.91,5.8 -4.61,0.84 -6,-1.7 -4.82,-6.24 5.45,-20.98 69.62,-38.84 90.06,-5.92 12.86,20.71 3.3,52.7 -41.62,55.43 -0.42,4.68 0.12,8.87 -3.1,11.73 -2.39,2.12 -7.02,3.15 -10.15,1.64 -3.95,-2.51 -3.29,-5.09 -3.38,-12.21 -0.06,-4.92 -0.17,-9.82 -0.26,-14.74 -0.46,-23.29 -4.33,-31.22 8.55,-32.53 14.28,-1.44 9.11,12.85 8.71,35.53zm69.31 -9.12c19.31,-102.26 -138.08,-114.11 -144.43,-6.13 -6.41,108.93 124.68,110.77 144.43,6.13z"/>
   <path class="fil0" d="M195.9 45.44c15.63,0 26.17,0.51 26.37,18.23 0.2,18.44 -9.85,18.86 -26.7,18.86l0.33 -37.09zm-22.03 -2.59c3.45,5.49 10.11,-1.45 10.17,13.4l0 45.48c-0.06,11.51 -3.24,7.86 -10.29,12.17l1.85 0.83c7.22,2.14 -6.35,-0.85 2.07,0.53 4.72,0.77 26.21,0.92 29,-1.36 -5.75,-4.03 -14.41,3.25 -10.7,-27.9 11.01,0 23.58,0.53 31.54,-5.52 11.18,-8.5 14.3,-36.47 -19.27,-38.23 -7.48,-0.39 -28.5,-1.4 -34.37,0.6z"/>
   <path class="fil0" d="M484.47 73.35c0.35,5.31 1.04,35.1 -1.53,38.28 -2.57,3.18 -1.06,-2 -4.55,3.7l21.52 -0.05c-1.98,-3.82 0.56,-1.61 -5.17,-3.24 -0.17,-6.85 -0.95,-26.7 0.15,-32.35 0.96,-4.91 9.74,-15.3 18.48,-10.12 5.14,3.05 4.19,10.58 4.16,18.6 -0.15,33.83 0.15,18.14 -4.89,27.22l21.03 -0.55c-1.64,-3.13 -2.18,-1.82 -5.77,-3.01 -0.47,-10.21 1.83,-36.33 -2.42,-43.19 -6.71,-10.84 -24.39,-6.52 -29.19,2.75l-0.84 -2c-2.7,-7.06 0.31,-3.61 -3.03,-6.66l-14.09 1.49c3.76,4.57 5.51,-0.53 6.14,9.13z"/>
   <path class="fil0" d="M621.66 85.07l-0.34 -19.93c9.93,-1.29 19.41,-0.59 19.45,9.55 0.03,10.36 -8.94,11.23 -19.11,10.38zm-0.12 8.48c8.9,-0.93 15.43,0.5 22.3,-4.61 11.4,-8.5 13.72,-39.64 -32.04,-31.94l0.01 58.03 9.49 0.24 0.24 -21.72z"/>
   <polygon class="fil0" points="718.87,64.74 742.5,64.74 742.23,56.54 709.25,56.69 709.29,115.29 742.54,115.33 741.88,107.14 718.76,107.14 718.76,88.82 740.68,88.71 740.96,80.88 718.75,80.82 "/>
   <path class="fil0" d="M316.98 88.4c0.01,5.91 1.59,13.84 -2.13,18.14 -3.6,4.16 -11.33,6.42 -15.1,1.56 -8.52,-10.98 8.6,-18.64 17.23,-19.7zm-17.76 -20.72c16.26,-8.18 17.82,2.96 17.75,16.71 -11.27,3.93 -30.03,5.42 -29.82,19.63 0.11,7.6 5.33,11.71 13.05,12 9.64,0.36 11.6,-4.24 17.27,-7.11 3.91,11.7 14.35,6.94 16.43,3.76 -5.52,-2.17 -6.2,0.56 -6.66,-7.29 -0.73,-12.23 2.92,-30.72 -3.81,-38.03 -10.36,-11.26 -43.56,-0.65 -32.75,10.56 3.3,4.67 5.46,2.55 9.53,0.7 1.34,-5.94 -0.06,-5.86 -0.99,-10.93z"/>
   <path class="fil0" d="M446.4 66.01c21.37,-8.51 23.56,40.59 8.83,46.33 -13.24,5.17 -18.38,-7.29 -19.03,-18 -0.79,-13.22 -0.17,-24.2 10.2,-28.33zm-21.07 30.74c7.17,31.59 58.66,22.19 49.76,-14.41 -7.94,-32.62 -58.18,-22.73 -49.76,14.41z"/>
   <path class="fil0" d="M246.21 82.34c1,-8.74 3.54,-16.06 11.42,-16.92 10.21,-1.12 11.53,7.76 11.52,17.13l-22.94 -0.21zm34.02 19.56c-3.38,1.09 -1.72,0.69 -4.58,3.41 -14.08,13.38 -31.95,1.53 -29.35,-19.25l34.01 -0.58c2.59,-31.72 -41.66,-29.95 -45.49,0.22 -4.59,36.07 42.62,38.05 45.41,16.2z"/>
   <path class="fil0" d="M389.67 76.36c-0.21,-9.03 5.5,-13.98 14.05,-9.76 7.42,3.65 7.46,11.27 12.49,12.4l-0.05 -16.31c-5.69,1.59 -1.11,2.97 -9.13,0.81 -12.6,-3.39 -23.94,2.26 -24.71,13.75 -1.21,17.85 20.07,13.56 28.8,23.42 1.97,9.96 -4.7,15.05 -14.89,11.49 -8.02,-2.8 -8.04,-12.04 -14.35,-14.66l0.65 18.4c5.39,-2.55 2.27,-3.67 8.86,-1.54 4.34,1.4 7.31,2.04 12.53,1.53 8.58,-0.84 13.13,-5.61 14.48,-13.52 3.28,-19.28 -17.55,-16.25 -28.73,-26.01z"/>
   <polygon class="fil0" points="673.25,115.47 682.9,114.64 683.18,64.97 700.25,64.53 700.07,56.57 655.89,56.94 655.9,64.69 673.12,65.48 "/>
   <path class="fil0" d="M339.42 63.75c3.59,6.24 5.9,-1.91 5.9,10.95l-0.21 36.56c-4.27,2.48 -3.71,-0.01 -5.7,3.91l21.63 -0.25c0.2,-0.05 0.65,-0.11 0.8,-0.46 0.13,-0.34 0.45,-0.38 0.68,-0.56 -5.52,-2.98 -6.94,-0.35 -6.94,-8.58 0,-23.44 -3.05,-29.46 8.25,-36.79 0.22,0.22 0.42,0.6 0.53,0.77l0.96 1.55c0.14,0.23 0.29,0.57 0.42,0.81 2.92,5.08 3.15,5.64 10.36,4.11 8.33,-14.27 -12.14,-18.81 -19.77,-4.79l-2.31 -8.1 -14.6 0.87z"/>
   <path class="fil0" d="M572.05 52.93c-3.47,4.25 -1.51,60.8 -1.51,66.17l4.49 0 0.15 -60.48c-0.33,-6.67 0.66,-4.51 -3.13,-5.69z"/>
  </g>
 </g>
</svg>
