<?xml version="1.0" encoding="UTF-8"?>
<!DOCTYPE svg PUBLIC "-//W3C//DTD SVG 1.1//EN" "http://www.w3.org/Graphics/SVG/1.1/DTD/svg11.dtd">
<!-- Creator: CorelDRAW 2019 (64-Bit) -->
<svg xmlns="http://www.w3.org/2000/svg" xml:space="preserve" width="2208px" height="903px" version="1.1" style="shape-rendering:geometricPrecision; text-rendering:geometricPrecision; image-rendering:optimizeQuality; fill-rule:evenodd; clip-rule:evenodd"
viewBox="0 0 316.98 129.67"
 xmlns:xlink="http://www.w3.org/1999/xlink">
 <defs>
  <style type="text/css">
   <![CDATA[
    .fil0 {fill:#7B878D}
   ]]>
  </style>
 </defs>
 <g id="Layer_x0020_1">
  <metadata id="CorelCorpID_0Corel-Layer"/>
  <g id="_1489120526816">
   <path class="fil0" d="M248.29 88.48c0,-5.62 -0.44,-20.38 8.06,-15.96 2.64,1.37 1.62,7.06 1.62,10.38l0 24.2c0,3.1 1.06,9.09 -1.49,10.52 -8.52,4.79 -8.19,-9.21 -8.19,-14.71l0 -14.43zm9.57 -22.59c-1.15,-0.47 -2.17,-2.24 -4.56,-3.31 -2.05,-0.92 -4.83,-1.12 -7.34,-0.83 -13.47,1.55 -14.04,24.5 -14.07,35.11 -0.03,12.76 0.58,33.11 16.44,32.59 6.14,-0.2 6.92,-4.05 10.27,-5.76l0.06 4.86 14.56 0.04 0.05 -93.5 -15.3 0.11 -0.11 30.69z"/>
   <path class="fil0" d="M82.79 128.59l15.14 0.04c0.86,-3.91 0.28,-35.44 0.27,-43.87 0,-4.96 -1.51,-10.06 4.46,-10.39 5.39,-0.29 4.73,5.45 4.72,9.92 -0.03,12.71 -0.51,32.9 0.06,44.09l15.3 0.2c0.63,-9.34 0.08,-37.48 0.1,-48.94 0.01,-7.95 -0.07,-15.07 -6.8,-17.53 -8.47,-3.09 -13.61,4 -17.9,6.21l0.04 -32.98 -15.24 -0.14 -0.15 93.39z"/>
   <path class="fil0" d="M126.03 62.64c-0.63,3.86 -0.15,41.74 -0.16,49.11 -0.01,7.99 0.75,14.78 7.46,17.27 5.13,1.91 10.43,-0.94 13.96,-3.82 0.99,-0.81 1.98,-2.14 3.17,-2.61l0.09 5.98 15.37 -0.16 -0.14 -65.83 -15.13 0.03c-0.8,4.45 -0.18,35.56 -0.18,44.49 0,5.12 1.14,9.32 -4.59,9.62 -5.35,0.29 -4.58,-5.49 -4.58,-10.09 0.01,-9.1 0.61,-39.18 -0.15,-44.05l-15.12 0.06z"/>
   <path class="fil0" d="M55.18 76.34c4.26,-3.08 8.54,-3.33 9.12,3.37 0.91,10.62 -0.84,34.63 0.13,48.85l15.07 -0.03c0.52,-15.54 0.08,-38.59 0.07,-54.94 0,-6.98 -3.6,-12 -10.42,-12.04 -8.09,-0.05 -11.7,6.06 -14.11,7.02l0.03 -6.03 -15.45 -0.04 0.09 66.11c4.98,-0.09 10.56,0.31 15.33,-0.25l0.14 -52.02z"/>
   <path class="fil0" d="M276.99 62.62c0.68,16.01 0.08,33.44 0.06,49.6 0,3.99 -0.13,7.69 1.51,11.17 1.09,2.31 3.55,4.93 6.26,5.73 8.54,2.53 14.36,-5.17 16.87,-6.65l0.1 6.12 15.19 -0.24 -0.08 -65.76 -15.01 -0.02c-0.81,4.76 -0.18,35.39 -0.18,44.53 0,4.83 1.21,9.35 -4.56,9.63 -5.11,0.24 -4.85,-5.1 -4.84,-9.62 0.02,-14.29 -0.36,-30.82 0.05,-44.58l-15.37 0.09z"/>
   <path class="fil0" d="M205.42 88.14c-0.13,-4.78 -0.64,-14.77 4.72,-14.66 5.43,0.12 5.06,9.76 4.86,14.78l-9.58 -0.12zm24.41 23.14c-1.61,-1.22 -9.05,-3.18 -10.82,-3.36 -2.47,11.76 -14.79,15.07 -13.56,-7.4l24.05 -0.1c1.15,-5.57 -0.47,-18.08 -2.06,-23.2 -6.23,-20.08 -23.06,-17.97 -30.28,-10.57 -11.61,11.89 -11.22,50.26 2.18,59.65 10.66,7.47 28.32,2.52 30.49,-15.02z"/>
   <path class="fil0" d="M192.46 45.67c3.34,-2.67 8,-10.91 19.05,-17.24 6.54,-3.74 21.41,-6.21 30.05,-6.7 -1.23,1.45 -2.26,1.59 -4.18,2.31 -5.96,2.25 -9.08,2.75 -15.06,4.47 -7.71,2.2 -12.06,4.35 -17.23,8.36 -6.68,5.19 -14.07,12.71 -17.98,20.21 -3.12,5.97 -4.01,7.17 -1.21,7.97 4.75,-9.7 2.72,-13.08 20.08,-15.69 9.48,-1.42 22.67,-1.82 30.67,-5.58 14.96,-7.03 24.69,-20.07 27.65,-35.63 0.3,-1.55 0.71,-5.02 0.24,-6.59l-0.98 -1.56c-1.3,4.25 -2.69,6.46 -5.94,8.46 -10.09,6.23 -25.77,3.77 -37.63,5.99 -4.47,0.84 -7.3,1.93 -10.6,3.95 -1.6,0.98 -3.09,1.99 -4.35,3.08 -5.6,4.82 -13.69,16.12 -12.58,24.19z"/>
   <path class="fil0" d="M11.87 108.56l-11.87 1.67c0.46,13.27 7.29,19.31 20.29,19.22 11.11,-0.08 18.93,-9.34 17.84,-21.44 -1.03,-11.44 -9.91,-15.76 -18.04,-21.19 -12.72,-8.51 -4.27,-16.98 1.51,-13.15 2.74,1.82 2.03,4.55 3.28,6.92 1.86,0.82 8.22,-0.96 10.88,-1.29 0.22,-10.38 -8.09,-19.94 -20.85,-17.42 -10.07,1.99 -16.13,11.72 -13.42,23.93 3.41,15.4 21.02,18.04 22.72,25.69 0.67,2.97 -0.36,5.56 -2.88,6.52 -6.7,2.56 -8.51,-4.31 -9.46,-9.46z"/>
   <polygon class="fil0" points="170.25,128.39 186.82,128.17 186.94,111.57 170.15,111.56 "/>
   <path class="fil0" d="M170.25 128.39l-0.1 -16.83 16.79 0.01 -0.12 16.6 -16.57 0.22zm0 0c0.49,0.76 0.81,0.43 3.6,0.41l13.18 -0.14c0.66,-1.98 0.56,-14.84 0.17,-17.29 -2.5,-0.78 -15.04,-0.84 -17.38,0.06l-0.19 15.21c0.06,2.87 0.16,1.28 0.62,1.75z"/>
  </g>
 </g>
</svg>
