<svg height="512" viewBox="0 0 512 512" width="512" xmlns="http://www.w3.org/2000/svg"><g id="flat"><path d="m320 208h-252.495l-3.505 24-40 56 32 28.645v115.355l72 8v48h176v-80l9.961-39.157a382.51 382.51 0 0 0 7.149-153.793z" fill="#f6bb92"/><path d="m121.807 288a40.347 40.347 0 0 1 -36.286-22.426l-1.063-2.125a8 8 0 0 1 14.311-7.156l1.062 2.125a24.569 24.569 0 0 0 43.951 0l1.063-2.125a8 8 0 0 1 14.31 7.156l-1.062 2.125a40.348 40.348 0 0 1 -36.286 22.426z" fill="#d6a27f"/><path d="m56 346.064h24.218a26.188 26.188 0 0 0 18.641-7.721 8 8 0 1 1 11.315 11.314 42.089 42.089 0 0 1 -29.956 12.407h-24.218z" fill="#d6a27f"/><path d="m368 65.143h-41.143v-41.143h-61.714v41.143h-41.143v61.714h41.143v41.143h61.714v-41.143h41.143z" fill="#eeb436"/><path d="m384 184h32v32h-32z" fill="#f6bb92"/><path d="m384 152v32h32v-11.056a8 8 0 0 0 -4.422-7.155z" fill="#7a4922"/><path d="m384 216-24-24-9.143-32h-30.857l16 48 32 32v56h48v-80z" fill="#dcdbd6"/><path d="m368 296v96l-16 16h48v-72l16 24 40 8 16 16v-48l-40-8-16-32z" fill="#7a4922"/><path d="m304 408h104v24h32v24h32v32h-168z" fill="#c7830b"/><path d="m192 136h-32v-36h-40v36h-32v40h32v32h40v-32h32z" fill="#92d1f7"/></g></svg>